<?xml version="1.0" encoding="UTF-8"?>
<svg version="1.1" xmlns="http://www.w3.org/2000/svg" width="512" height="512">
<path d="M0 0 C1.19367188 -0.01675781 2.38734375 -0.03351562 3.6171875 -0.05078125 C10.64432698 0.67697373 15.70746399 4.99578519 21.1875 9.125 C21.88166016 9.63353516 22.57582031 10.14207031 23.29101562 10.66601562 C28.49898687 14.56828468 33.88986021 18.97551028 36.125 25.3125 C36.4609375 28.265625 36.4609375 28.265625 36.5 31.5625 C36.52835937 32.64015625 36.55671875 33.7178125 36.5859375 34.828125 C35.44853699 43.42610175 29.70664085 49.80291847 24.5 56.4375 C23.04784996 58.31384441 21.59732584 60.1914483 20.1484375 62.0703125 C19.10187988 63.42624512 19.10187988 63.42624512 18.03417969 64.80957031 C15.25468043 68.45348674 12.6194201 72.1854314 9.98486328 75.93530273 C6.24249065 81.22123104 2.31262114 86.35855864 -1.625 91.5 C-9.16662438 101.34785826 -16.54910289 111.30357228 -23.875 121.3125 C-24.98024103 122.81917749 -26.08570579 124.32569089 -27.19140625 125.83203125 C-29.75442512 129.32418938 -32.31538706 132.81784479 -34.875 136.3125 C-33.40740234 136.45945313 -33.40740234 136.45945313 -31.91015625 136.609375 C-20.29928682 137.93372196 -10.83779071 140.15268846 -2.875 149.3125 C1.20915024 155.79849543 3.24555286 161.78518934 3.25642776 169.46007824 C3.26026891 170.481018 3.26411005 171.50195776 3.2680676 172.55383509 C3.26720112 173.66860659 3.26633463 174.78337809 3.26544189 175.93193054 C3.26989858 177.71635118 3.26989858 177.71635118 3.2744453 179.53682071 C3.28161751 182.83549337 3.28430398 186.13411393 3.28504276 189.43279064 C3.28689608 192.99189706 3.29444483 196.55099225 3.30117798 200.11009216 C3.31475075 207.89120954 3.32078441 215.67232176 3.32518864 223.45344901 C3.32795292 228.31384944 3.33219062 233.1742479 3.33669281 238.03464699 C3.34888424 251.49684747 3.35918371 264.95904637 3.3625679 278.42125225 C3.36278747 279.28260351 3.36300703 280.14395477 3.36323325 281.03140758 C3.36345153 281.8947973 3.36366981 282.75818702 3.3638947 283.64774007 C3.36433816 285.39724012 3.36478473 287.14674018 3.36523438 288.89624023 C3.3654558 289.76404914 3.36567723 290.63185804 3.36590537 291.52596418 C3.36985233 305.58360966 3.3873038 319.64120327 3.4105939 333.69882872 C3.43432319 348.13833582 3.44677048 362.57781691 3.44793582 377.01734382 C3.44885171 385.12186338 3.45458228 393.22631535 3.47275543 401.33081627 C3.48817774 408.23277943 3.49326435 415.13465412 3.48501733 422.03663125 C3.4811183 425.55585961 3.4820036 429.07490991 3.49607468 432.59411621 C3.50877874 436.41561401 3.50292504 440.23665652 3.49249268 444.05815125 C3.50457728 445.71357808 3.50457728 445.71357808 3.51690602 447.40244788 C3.45372693 457.31555417 1.65016529 465.54556349 -4.76953125 473.265625 C-10.92054732 479.24546251 -17.65333402 482.43349723 -26.17645931 482.44672108 C-26.82128444 482.44907331 -27.46610956 482.45142554 -28.13047484 482.45384905 C-30.3060704 482.4605424 -32.48160629 482.46008072 -34.6572113 482.45967102 C-36.22692282 482.46296946 -37.7966335 482.46669499 -39.36634308 482.4708125 C-43.69180014 482.48084331 -48.01724333 482.48455105 -52.34271038 482.48720181 C-57.00346841 482.49110178 -61.66421542 482.50068048 -66.32496643 482.50941467 C-77.58823911 482.52919007 -88.8515127 482.53924767 -100.1147984 482.54814246 C-105.41849822 482.5525245 -110.72219704 482.55789161 -116.02589607 482.56313133 C-133.65709316 482.58014637 -151.28828963 482.5946398 -168.91949368 482.60188007 C-173.49637795 482.60378999 -178.07326223 482.60571031 -182.65014648 482.60766602 C-184.3565024 482.60839163 -184.3565024 482.60839163 -186.09733016 482.6091319 C-204.51866417 482.61742932 -222.93993319 482.64276017 -241.36123883 482.67524669 C-260.27328059 482.70832666 -279.18528935 482.72632977 -298.09736019 482.72952431 C-308.71597863 482.73168878 -319.33450234 482.74042794 -329.95309258 482.76598549 C-338.99822102 482.78770545 -348.04323175 482.79573659 -357.08838331 482.78601871 C-361.70151483 482.78147749 -366.31440354 482.78334983 -370.92750168 482.80278015 C-375.15636457 482.82043774 -379.38480798 482.81939317 -383.61367548 482.80388286 C-385.13802046 482.80151069 -386.66239467 482.80580998 -388.18669503 482.81771151 C-402.61184843 482.92330271 -413.92673855 480.06923142 -424.875 470.3125 C-432.91684487 461.74748678 -438.11717092 451.63620819 -438.13226891 439.72187519 C-438.1387178 438.42996527 -438.14516669 437.13805535 -438.151811 435.80699664 C-438.14886914 434.38559766 -438.14573374 432.96419908 -438.14242554 431.5428009 C-438.14616411 430.0232582 -438.15076645 428.50371742 -438.15615618 426.98417968 C-438.16837625 422.81595962 -438.16812688 418.64781988 -438.16576743 414.47958601 C-438.16535901 409.9811291 -438.17640089 405.48269785 -438.18588257 400.98425293 C-438.2024885 392.17328372 -438.20799195 383.36234127 -438.20910732 374.55135772 C-438.21005807 367.38772163 -438.21416968 360.22409435 -438.22050858 353.06046104 C-438.2381205 332.74305358 -438.24734762 312.42566724 -438.24584763 292.10825209 C-438.24576772 291.01316122 -438.2456878 289.91807036 -438.24560547 288.78979492 C-438.24552371 287.69336431 -438.24544195 286.59693369 -438.24535771 285.46727791 C-438.244545 267.7025453 -438.26367892 249.93789752 -438.2918822 232.17318944 C-438.32062332 213.92546359 -438.33442179 195.6777791 -438.33269465 177.43003005 C-438.33203113 167.18818339 -438.33750651 156.94642563 -438.35905075 146.70459938 C-438.37727876 137.98345052 -438.38159662 129.26243087 -438.3680319 120.54127119 C-438.36151022 116.09418529 -438.36135603 111.64734715 -438.3787384 107.20028496 C-438.39450986 103.12330333 -438.39156426 99.04676508 -438.37417014 94.969794 C-438.37110915 93.50075303 -438.37469845 92.03167864 -438.38589029 90.56267712 C-438.49530222 75.17326664 -434.65490048 63.65354285 -424.375 52.1875 C-412.31883057 40.61727981 -397.13073242 38.9536368 -381.25463867 38.99682617 C-378.81449128 38.99999741 -376.37554607 38.97642762 -373.93554688 38.95117188 C-372.36198067 38.94889925 -370.78841126 38.94819521 -369.21484375 38.94921875 C-368.49691147 38.940009 -367.77897919 38.93079926 -367.03929138 38.92131042 C-360.94639425 38.97622539 -355.35902417 40.19916211 -350.59765625 44.25 C-350.04980469 44.930625 -349.50195312 45.61125 -348.9375 46.3125 C-348.37160156 46.993125 -347.80570312 47.67375 -347.22265625 48.375 C-330.28851463 72.72089636 -344.875 107.65634007 -344.875 137.3125 C-266.665 137.3125 -188.455 137.3125 -107.875 137.3125 C-107.545 135.3325 -107.215 133.3525 -106.875 131.3125 C-105.68261719 129.17285156 -105.68261719 129.17285156 -104.171875 127.203125 C-103.61040771 126.45796631 -103.04894043 125.71280762 -102.47045898 124.94506836 C-101.55695679 123.76569702 -101.55695679 123.76569702 -100.625 122.5625 C-99.33896102 120.86134405 -98.05382529 119.15950494 -96.76953125 117.45703125 C-96.11678223 116.59803223 -95.4640332 115.7390332 -94.79150391 114.85400391 C-91.90639071 111.02801303 -89.10700516 107.14240774 -86.3125 103.25 C-85.23840108 101.75902825 -84.16418221 100.26814291 -83.08984375 98.77734375 C-82.55987793 98.04112793 -82.02991211 97.30491211 -81.48388672 96.54638672 C-78.24353805 92.04726831 -74.99472298 87.55425881 -71.74755859 83.06005859 C-69.04901978 79.324555 -66.35242047 75.5876852 -63.66015625 71.84765625 C-58.04596822 64.05334153 -52.39614617 56.287964 -46.6875 48.5625 C-42.69004326 43.15225244 -38.71348655 37.73028145 -34.8125 32.25 C-34.42586182 31.70835205 -34.03922363 31.1667041 -33.64086914 30.60864258 C-31.84734783 28.09345033 -30.05923538 25.57480505 -28.28369141 23.046875 C-26.57116533 20.60953516 -24.84848312 18.1796002 -23.125 15.75 C-22.32823853 14.60615845 -22.32823853 14.60615845 -21.51538086 13.43920898 C-15.73825906 5.32920975 -10.37063728 0.03345367 0 0 Z M-9.75 19.3125 C-11.07593464 21.2170621 -11.07593464 21.2170621 -10.66625977 23.26220703 C-9.67440932 25.83226566 -8.60829894 26.58334073 -6.33984375 28.1171875 C-5.61216797 28.61863281 -4.88449219 29.12007812 -4.13476562 29.63671875 C-2.98524414 30.40435547 -2.98524414 30.40435547 -1.8125 31.1875 C-0.32078773 32.20451743 1.17010065 33.22274438 2.66015625 34.2421875 C3.39508301 34.74202148 4.13000977 35.24185547 4.88720703 35.75683594 C8.37213342 38.17947951 11.75306034 40.7358129 15.125 43.3125 C19.29646933 41.44585511 20.96467726 39.40168232 23.125 35.3125 C23.87511367 31.76978358 23.87511367 31.76978358 23.125 28.3125 C19.59362266 24.3159505 15.53352868 21.135989 11.25 18 C10.66347656 17.54560547 10.07695312 17.09121094 9.47265625 16.62304688 C1.88336372 11.07702541 -3.54738046 12.69637249 -9.75 19.3125 Z M-19.875 34.3125 C-21.27299192 35.82323084 -21.27299192 35.82323084 -22.67578125 37.8359375 C-23.23402588 38.60043213 -23.79227051 39.36492676 -24.36743164 40.15258789 C-24.9680542 40.98910889 -25.56867676 41.82562988 -26.1875 42.6875 C-26.81197021 43.54657959 -27.43644043 44.40565918 -28.07983398 45.29077148 C-30.01789424 47.96015678 -31.94693099 50.63589237 -33.875 53.3125 C-34.99432976 54.85840747 -36.114098 56.40399758 -37.234375 57.94921875 C-39.91791669 61.65450012 -42.59329189 65.36559385 -45.26611328 69.07861328 C-47.96512128 72.82609784 -50.67038884 76.56905845 -53.375 80.3125 C-54.45836304 81.81247854 -55.54169638 83.31247854 -56.625 84.8125 C-58.79166667 87.8125 -60.95833333 90.8125 -63.125 93.8125 C-63.66181396 94.55580566 -64.19862793 95.29911133 -64.75170898 96.06494141 C-65.82925052 97.55687213 -66.90688642 99.04873472 -67.98461914 100.54052734 C-70.78236583 104.4134184 -73.57819916 108.28767062 -76.37109375 112.1640625 C-76.94730469 112.96328125 -77.52351563 113.7625 -78.1171875 114.5859375 C-79.20764902 116.09851316 -80.29753971 117.61150059 -81.38671875 119.125 C-81.886875 119.81851563 -82.38703125 120.51203125 -82.90234375 121.2265625 C-83.38558105 121.89977539 -83.86881836 122.57298828 -84.36669922 123.26660156 C-85.42403333 124.70079707 -86.51193577 126.11272068 -87.62158203 127.50683594 C-88.18087402 128.21356445 -88.74016602 128.92029297 -89.31640625 129.6484375 C-90.08706421 130.59662354 -90.08706421 130.59662354 -90.87329102 131.56396484 C-91.20385498 132.14098145 -91.53441895 132.71799805 -91.875 133.3125 C-90.75648231 136.66805306 -90.17366585 137.08607794 -87.375 139.01953125 C-86.65183594 139.52419922 -85.92867188 140.02886719 -85.18359375 140.54882812 C-84.42175781 141.06896484 -83.65992188 141.58910156 -82.875 142.125 C-82.14410156 142.63353516 -81.41320312 143.14207031 -80.66015625 143.66601562 C-75.44383737 147.28260226 -70.16594906 150.80630813 -64.875 154.3125 C-64.5346875 153.84690674 -64.194375 153.38131348 -63.84375 152.90161133 C-56.94207761 143.47031998 -49.97842434 134.09300358 -42.875 124.8125 C-35.4196337 115.06710473 -28.12370552 105.21216069 -20.875 95.3125 C-11.02598856 81.86156437 -1.01746659 68.54379063 9.125 55.3125 C5.05321526 50.92563668 0.54882345 47.63034511 -4.375 44.25 C-5.86560991 43.21893045 -7.35521874 42.18641193 -8.84375 41.15234375 C-9.54113281 40.66878418 -10.23851562 40.18522461 -10.95703125 39.68701172 C-12.61182894 38.50110146 -14.20378556 37.22839673 -15.78125 35.94140625 C-17.69596465 34.10781915 -17.69596465 34.10781915 -19.875 34.3125 Z M-417.58984375 64.41796875 C-423.93893273 73.43709026 -425.31694099 81.04746815 -425.23576355 91.89147949 C-425.23832682 93.14788191 -425.2408901 94.40428433 -425.24353105 95.69875956 C-425.25021242 99.16967144 -425.23827607 102.64030356 -425.22319686 106.11117983 C-425.21020663 109.86022178 -425.21462807 113.60924875 -425.21690369 117.35830688 C-425.21847454 123.84834004 -425.20908506 130.3382825 -425.19219017 136.82829285 C-425.16777916 146.2116715 -425.15999275 155.59500644 -425.1562262 164.9784134 C-425.14966501 180.20340721 -425.12971287 195.42835272 -425.10131836 210.65332031 C-425.07376918 225.44042723 -425.0525398 240.22752102 -425.03979492 255.01464844 C-425.03900675 255.9265673 -425.03821858 256.83848616 -425.03740653 257.77803892 C-425.03349133 262.35299956 -425.02970023 266.9279603 -425.02597082 271.5029211 C-424.99488527 309.4394815 -424.94205852 347.37598698 -424.875 385.3125 C-423.71726074 384.13989624 -423.71726074 384.13989624 -422.53613281 382.94360352 C-411.32189388 371.85591059 -398.98532465 366.3125 -383.19921875 366.3125 C-376.78280358 366.63232132 -370.89275977 367.48480806 -364.61303711 368.84887695 C-363.351483 369.12206253 -362.08992889 369.39524811 -360.79014587 369.67671204 C-359.82814774 369.88652206 -358.8661496 370.09633209 -357.875 370.3125 C-357.76062597 330.37887938 -357.67248743 290.44528006 -357.61967335 250.51152845 C-357.61341961 245.80000307 -357.60694802 241.08847802 -357.6003418 236.37695312 C-357.59903024 235.43894933 -357.59771869 234.50094553 -357.5963674 233.53451738 C-357.57459412 218.33436585 -357.53516204 203.13430861 -357.48923602 187.93421307 C-357.44252481 172.34454856 -357.41471591 156.75493353 -357.40455753 141.1652019 C-357.39768727 131.54075093 -357.37596662 121.91656641 -357.33541767 112.29219744 C-357.30904511 105.69783219 -357.30098651 99.10360526 -357.30749311 92.50919107 C-357.31070462 88.70101151 -357.3056852 84.89329846 -357.27897263 81.08520126 C-357.2502546 76.96121699 -357.26002349 72.83823334 -357.27372742 68.71417236 C-357.25916321 67.50406596 -357.244599 66.29395957 -357.22959346 65.04718328 C-357.13095867 58.77247108 -357.13095867 58.77247108 -360.19967365 53.56974411 C-363.67287865 51.93754454 -366.32321473 51.79477481 -370.16015625 51.78125 C-371.20555824 51.77550964 -371.20555824 51.77550964 -372.27207947 51.76965332 C-373.74544724 51.76693935 -375.21886362 51.77426471 -376.69213867 51.79101562 C-378.9072324 51.81221039 -381.11899842 51.79132032 -383.33398438 51.765625 C-396.26483238 51.73993542 -408.9732487 53.83859578 -417.58984375 64.41796875 Z M-95.875 148.3125 C-97.11420252 150.79090505 -97.18231035 152.77453224 -97.41015625 155.5390625 C-97.49716797 156.5703125 -97.58417969 157.6015625 -97.67382812 158.6640625 C-97.76083984 159.74429688 -97.84785156 160.82453125 -97.9375 161.9375 C-98.02837891 163.02546875 -98.11925781 164.1134375 -98.21289062 165.234375 C-98.43725951 167.92680157 -98.65780114 170.61948709 -98.875 173.3125 C-95.76582704 171.88565404 -92.66363947 170.44421297 -89.5625 169 C-88.68142578 168.59587891 -87.80035156 168.19175781 -86.89257812 167.77539062 C-86.04501953 167.37900391 -85.19746094 166.98261719 -84.32421875 166.57421875 C-83.54393311 166.21287842 -82.76364746 165.85153809 -81.9597168 165.47924805 C-79.87272252 164.31122537 -78.46683642 163.08244399 -76.875 161.3125 C-79.66508824 159.3311007 -82.4573341 157.35276419 -85.25 155.375 C-86.0440625 154.81103516 -86.838125 154.24707031 -87.65625 153.66601562 C-88.41679687 153.12783203 -89.17734375 152.58964844 -89.9609375 152.03515625 C-90.6626709 151.53765869 -91.3644043 151.04016113 -92.08740234 150.52758789 C-93.86100304 149.26410216 -93.86100304 149.26410216 -95.875 148.3125 Z M-344.875 150.3125 C-345.04555287 224.46419488 -345.04555287 224.46419488 -345.17285156 298.6159668 C-345.21826172 312.93908691 -345.21826172 312.93908691 -345.24456787 319.63874817 C-345.26161215 324.33022781 -345.26742983 329.02157909 -345.26654053 333.71308899 C-345.26577137 339.69241201 -345.28397734 345.67139111 -345.31608915 351.65062487 C-345.32462959 353.84812044 -345.32643066 356.04565464 -345.32082415 358.24315965 C-345.31422001 361.20631691 -345.3319987 364.16834952 -345.35601807 367.13139343 C-345.34437685 368.42820652 -345.34437685 368.42820652 -345.33250046 369.75121784 C-345.39068319 373.80414666 -345.5630561 375.82002609 -347.78243637 379.32381916 C-351.1340605 382.50905597 -353.53624431 382.57973763 -358.125 382.54296875 C-361.25594754 382.280574 -364.13733459 381.62654316 -367.1875 380.875 C-379.22076704 377.93322342 -391.69450612 376.70671322 -402.91796875 383.015625 C-412.8216594 389.57854974 -421.12698853 399.90779323 -424.875 411.3125 C-425.26682464 415.94953063 -425.24661695 420.58820602 -425.24560547 425.23950195 C-425.24995376 427.47621258 -425.28623493 429.7109068 -425.32421875 431.94726562 C-425.41456842 443.27422347 -423.78153587 452.09933565 -415.80078125 460.55859375 C-407.30562258 468.29556382 -397.64244302 470.43113283 -386.33846474 470.44392776 C-385.0586383 470.44776891 -383.77881187 470.45161005 -382.46020281 470.4555676 C-381.05245815 470.4547875 -379.64471354 470.45390874 -378.23696899 470.45294189 C-376.73178894 470.4555277 -375.22660957 470.45854146 -373.72143114 470.4619453 C-369.5930442 470.46999288 -365.46467467 470.47180361 -361.33628082 470.47254276 C-356.88083431 470.47439716 -352.42539676 470.4819463 -347.96995544 470.48867798 C-338.23247415 470.50224451 -328.49499698 470.50828301 -318.7575078 470.51268864 C-312.67662882 470.51545313 -306.59575142 470.51969079 -300.5148735 470.52419281 C-283.67528953 470.53638183 -266.83570683 470.54668281 -249.99611855 470.5500679 C-248.38036624 470.55039725 -248.38036624 470.55039725 -246.73197248 470.55073325 C-245.11239221 470.55106067 -245.11239221 470.55106067 -243.46009314 470.5513947 C-241.27222355 470.55183817 -239.08435396 470.55228473 -236.89648438 470.55273438 C-235.81122929 470.5529558 -234.7259742 470.55317723 -233.6078326 470.55340537 C-216.01568683 470.55735496 -198.42358245 470.57481551 -180.83145268 470.5980939 C-162.76567772 470.62180599 -144.69992352 470.63426964 -126.63413274 470.63543582 C-116.49244072 470.6363525 -106.35080267 470.64210345 -96.20912552 470.66025543 C-87.57537924 470.67565427 -78.94170362 470.68077804 -70.30794622 470.67251733 C-65.90379984 470.66861047 -61.49979576 470.66954231 -57.09566689 470.68357468 C-53.06147008 470.69631082 -49.02752256 470.69511866 -44.99332611 470.68298396 C-43.53645112 470.68102651 -42.07955848 470.68410767 -40.62270828 470.69282833 C-31.55549896 470.74365439 -23.08738684 470.61448253 -15.5 465.125 C-9.32162117 458.50530839 -9.44022354 451.01914298 -9.48731995 442.43273926 C-9.48193441 441.25140175 -9.47654887 440.07006425 -9.47100013 438.85292864 C-9.4592064 435.59128458 -9.46077412 432.32997012 -9.46816695 429.06832337 C-9.47290888 425.54405512 -9.46037982 422.01984097 -9.45014954 418.49559021 C-9.432977 411.59845666 -9.4321182 404.70141428 -9.43736244 397.8042649 C-9.44140778 392.19763063 -9.43995627 386.59102325 -9.43461418 380.98439026 C-9.43386576 380.18570456 -9.43311734 379.38701887 -9.43234624 378.56413057 C-9.43081473 376.94149569 -9.42927638 375.31886081 -9.42773127 373.69622594 C-9.41401215 358.48924342 -9.41944007 343.28231238 -9.43091648 328.07533103 C-9.44085119 314.16846131 -9.42790307 300.26172459 -9.40398229 286.35487539 C-9.37959116 272.06669285 -9.36998327 257.77857226 -9.37663502 243.49036932 C-9.38012683 235.47202021 -9.37789753 227.45377342 -9.36038399 219.43544006 C-9.34566195 212.61067936 -9.34502666 205.78609306 -9.3624549 198.96133578 C-9.37096681 195.48077187 -9.37311011 192.0005195 -9.35780334 188.51997185 C-9.34463729 184.74377335 -9.35610378 180.9684226 -9.37379456 177.19226074 C-9.36418955 176.09653637 -9.35458454 175.00081201 -9.34468848 173.87188387 C-9.41280142 166.80888923 -10.43618808 161.20890972 -15.21605974 155.79298735 C-22.16533275 149.39133319 -32.34035342 149.2453367 -41.3125 149.5390625 C-44.87566392 149.91070744 -45.89467081 150.32670112 -48.9375 152.5234375 C-51.23005992 155.35041173 -53.05257046 158.1650289 -54.875 161.3125 C-60.60947689 170.33067105 -68.63354385 174.65834372 -77.875 179.6875 C-78.79309448 180.18928772 -79.71118896 180.69107544 -80.65710449 181.20806885 C-108.96417196 196.05794417 -141.87340636 192.72801203 -172.875 191.3125 C-172.875 196.2625 -172.875 201.2125 -172.875 206.3125 C-170.80049561 206.32708252 -168.72599121 206.34166504 -166.58862305 206.35668945 C-159.7392606 206.40699609 -152.89012643 206.47358395 -146.04098797 206.54821491 C-141.88777793 206.59296845 -137.73466712 206.63221332 -133.58129883 206.65893555 C-129.57405724 206.6849192 -125.56719648 206.72528584 -121.5601902 206.77568626 C-120.03041122 206.79238857 -118.50056631 206.80388188 -116.97070885 206.81011391 C-114.82991867 206.81971892 -112.69011013 206.84773221 -110.54956055 206.88012695 C-108.72088692 206.89678154 -108.72088692 206.89678154 -106.85527039 206.91377258 C-103.875 207.3125 -103.875 207.3125 -101.98110962 208.37944031 C-100.2764339 211.3585663 -100.46646513 214.33546562 -100.50268555 217.67382812 C-100.49903488 218.42047226 -100.49538422 219.16711639 -100.49162292 219.93638611 C-100.48351345 222.40573841 -100.4971304 224.8744353 -100.51171875 227.34375 C-100.51223731 229.05863444 -100.51171977 230.77351947 -100.51020813 232.48840332 C-100.51029787 236.08301667 -100.52073103 239.67740582 -100.53881836 243.27197266 C-100.56150563 247.88237164 -100.56204985 252.49244295 -100.55530071 257.10288239 C-100.55196112 260.64417438 -100.55859063 264.18539151 -100.56842995 267.72666931 C-100.57228241 269.42674874 -100.57342997 271.1268365 -100.5718441 272.82691956 C-100.57147373 275.20183207 -100.58408547 277.57632266 -100.6003418 279.95117188 C-100.59662567 281.00793373 -100.59662567 281.00793373 -100.59283447 282.08604431 C-100.63261096 285.72232787 -100.79776329 287.19664494 -102.875 290.3125 C-105.59362955 290.62858118 -108.0896599 290.74989471 -110.81298828 290.74487305 C-111.63258026 290.7550647 -112.45217224 290.76525635 -113.29660034 290.77575684 C-116.01290609 290.80601594 -118.72885998 290.8151723 -121.4453125 290.82421875 C-123.32576685 290.84105589 -125.20620987 290.85920481 -127.0866394 290.87861633 C-132.04156965 290.92622734 -136.99645401 290.95596474 -141.95153809 290.98205566 C-147.0055447 291.01180535 -152.05939301 291.05835477 -157.11328125 291.10351562 C-167.03377155 291.18967493 -176.95429433 291.25696388 -186.875 291.3125 C-186.88713028 292.29515839 -186.88713028 292.29515839 -186.89950562 293.29766846 C-186.98550724 300.11091657 -187.08500919 306.92387228 -187.19238281 313.73681641 C-187.23068566 316.28006076 -187.2655362 318.82335952 -187.296875 321.36669922 C-187.34249662 325.02070577 -187.40049678 328.67433727 -187.4609375 332.328125 C-187.47248871 333.46679016 -187.48403992 334.60545532 -187.49594116 335.77862549 C-187.51581085 336.83942322 -187.53568054 337.90022095 -187.55615234 338.99316406 C-187.56947601 339.92582092 -187.58279968 340.85847778 -187.5965271 341.81939697 C-187.89284675 344.47227778 -188.38389751 346.10306954 -189.875 348.3125 C-193.0931178 349.38520593 -195.44314641 349.45222897 -198.82763672 349.47363281 C-200.05255829 349.48324036 -201.27747986 349.4928479 -202.53952026 349.50274658 C-203.87790745 349.50759455 -205.21629679 349.51187338 -206.5546875 349.515625 C-207.92847698 349.52137917 -209.30226645 349.52713687 -210.67605591 349.53289795 C-213.55601373 349.54339807 -216.43594371 349.54924723 -219.31591797 349.55273438 C-223.00023756 349.5582179 -226.68418737 349.5822466 -230.36839104 349.61070633 C-233.20631983 349.62936026 -236.04416001 349.63453975 -238.88214493 349.63607025 C-240.24008328 349.63909098 -241.59802029 349.64709997 -242.95589828 349.66025543 C-244.85838214 349.67737194 -246.76101902 349.67358277 -248.66357422 349.66894531 C-249.74484589 349.67259094 -250.82611755 349.67623657 -251.94015503 349.67999268 C-255.25400582 349.265042 -257.1611951 348.21148497 -259.875 346.3125 C-259 339.4375 -259 339.4375 -257.875 338.3125 C-256.0653226 338.18919912 -254.25092163 338.13459817 -252.43725586 338.10717773 C-251.27612778 338.08723251 -250.11499969 338.06728729 -248.91868591 338.04673767 C-247.655168 338.03002518 -246.39165009 338.01331268 -245.08984375 337.99609375 C-243.80388809 337.97531265 -242.51793243 337.95453156 -241.19300842 337.93312073 C-237.76864096 337.87783824 -234.3442125 337.82845639 -230.91973877 337.78027344 C-227.42755696 337.73010335 -223.93546298 337.67444764 -220.44335938 337.61914062 C-213.58730641 337.51096236 -206.73120672 337.41198803 -199.875 337.3125 C-199.875 322.1325 -199.875 306.9525 -199.875 291.3125 C-226.605 291.3125 -253.335 291.3125 -280.875 291.3125 C-280.93558594 298.29148437 -280.99617187 305.27046875 -281.05859375 312.4609375 C-281.0990708 316.87240227 -281.13983519 321.28386061 -281.18164062 325.6953125 C-281.24802288 332.70310323 -281.31331939 339.71089268 -281.37231445 346.71875 C-281.41992377 352.36624233 -281.47226531 358.01367248 -281.52794075 363.66109085 C-281.54837988 365.81972335 -281.56709034 367.97837291 -281.58407402 370.13703537 C-281.60808355 373.151804 -281.6381428 376.16645439 -281.66967773 379.18115234 C-281.6754332 380.08098343 -281.68118866 380.98081451 -281.68711853 381.90791321 C-281.76094784 388.08439568 -281.76094784 388.08439568 -282.875 390.3125 C-285.6875 391.1875 -285.6875 391.1875 -288.875 391.3125 C-291.04178238 389.8154335 -291.04178238 389.8154335 -292.875 387.3125 C-293.27124824 384.53990534 -293.42262573 382.16242014 -293.39398193 379.39056396 C-293.40523381 378.18487302 -293.40523381 378.18487302 -293.416713 376.95482469 C-293.43703146 374.25835885 -293.42887953 371.56273055 -293.42089844 368.86621094 C-293.4296312 366.93460252 -293.44011594 365.00300134 -293.45222473 363.07141113 C-293.48014166 357.82382417 -293.48348816 352.57647259 -293.48250484 347.32882214 C-293.48562905 341.84613428 -293.51123698 336.36355321 -293.53448486 330.88092041 C-293.57508614 320.49709344 -293.59539529 310.11332934 -293.60845876 299.72943521 C-293.62431482 287.90847094 -293.66272457 276.08761388 -293.70305204 264.26671171 C-293.78550749 239.94867709 -293.83956433 215.63064537 -293.875 191.3125 C-294.9419812 191.29062622 -294.9419812 191.29062622 -296.03051758 191.26831055 C-299.25006332 191.19388994 -302.46856518 191.09721 -305.6875 191 C-306.80705078 190.97744141 -307.92660156 190.95488281 -309.08007812 190.93164062 C-310.15322266 190.89619141 -311.22636719 190.86074219 -312.33203125 190.82421875 C-313.32178955 190.79803467 -314.31154785 190.77185059 -315.33129883 190.74487305 C-317.875 190.3125 -317.875 190.3125 -319.73706055 189.00708008 C-320.875 187.3125 -320.875 187.3125 -320.625 183.6875 C-319.875 180.3125 -319.875 180.3125 -318.875 179.3125 C-316.2220741 179.20449542 -313.59470388 179.16199513 -310.94091797 179.16101074 C-310.09955732 179.15677833 -309.25819668 179.15254592 -308.39134026 179.14818525 C-305.54995433 179.13508755 -302.70859651 179.12911814 -299.8671875 179.12304688 C-297.8391299 179.1151102 -295.81107402 179.10672271 -293.78302002 179.09791565 C-289.40517675 179.07981805 -285.02733738 179.06481708 -280.6494751 179.05213928 C-273.73487918 179.03197885 -266.82032607 179.00431884 -259.90576172 178.97546387 C-243.97903708 178.91016008 -228.05228068 178.85479633 -212.1255188 178.79947662 C-197.53339693 178.74869108 -182.94129056 178.69584493 -168.34920692 178.63495111 C-161.46767096 178.60652175 -154.58614019 178.58295467 -147.70457458 178.56302643 C-143.4325391 178.54968212 -139.1605274 178.53226747 -134.88851166 178.51371574 C-132.89904123 178.50593007 -130.90956321 178.49987358 -128.92008209 178.49562263 C-126.21637442 178.48961742 -123.51276053 178.47758994 -120.80908203 178.46398926 C-120.01114164 178.46369327 -119.21320126 178.46339728 -118.39108086 178.46309233 C-114.8378898 178.76730638 -114.8378898 178.76730638 -111.875 177.3125 C-111.64891943 175.99558534 -111.48091897 174.66855532 -111.33984375 173.33984375 C-111.25283203 172.52193359 -111.16582031 171.70402344 -111.07617188 170.86132812 C-110.98916016 169.99958984 -110.90214844 169.13785156 -110.8125 168.25 C-110.72162109 167.41533203 -110.63074219 166.58066406 -110.53710938 165.72070312 C-109.99574461 160.49836487 -109.875 155.62732812 -109.875 150.3125 C-187.425 150.3125 -264.975 150.3125 -344.875 150.3125 Z M-280.875 191.3125 C-280.875 220.3525 -280.875 249.3925 -280.875 279.3125 C-225.435 279.3125 -169.995 279.3125 -112.875 279.3125 C-112.875 259.5125 -112.875 239.7125 -112.875 219.3125 C-117.82113281 219.27511719 -122.76726562 219.23773438 -127.86328125 219.19921875 C-130.99417569 219.16894757 -134.12501268 219.13780546 -137.25585938 219.10351562 C-142.22677756 219.04915614 -147.1975821 218.99804798 -152.16870117 218.96606445 C-156.17594276 218.9400808 -160.18280352 218.89971416 -164.1898098 218.84931374 C-165.71958878 218.83261143 -167.24943369 218.82111812 -168.77929115 218.81488609 C-170.92008133 218.80528108 -173.05988987 218.77726779 -175.20043945 218.74487305 C-177.02911308 218.72821846 -177.02911308 218.72821846 -178.89472961 218.71122742 C-181.875 218.3125 -181.875 218.3125 -184.875 215.3125 C-185.205 207.3925 -185.535 199.4725 -185.875 191.3125 C-217.225 191.3125 -248.575 191.3125 -280.875 191.3125 Z " fill="#E66715" transform="translate(456.875,14.6875)"/>
<path d="M0 0 C1.14984375 -0.01224609 2.2996875 -0.02449219 3.484375 -0.03710938 C4.59039062 -0.03904297 5.69640625 -0.04097656 6.8359375 -0.04296875 C7.84962402 -0.04707764 8.86331055 -0.05118652 9.90771484 -0.05541992 C12.69384747 0.19365483 14.28594373 0.68893481 16.625 2.1875 C19.92086157 6.23881748 19.99981421 9.98093964 19.8125 15 C19.79219727 16.03930664 19.79219727 16.03930664 19.77148438 17.09960938 C19.73638845 18.79591265 19.68258943 20.49181136 19.625 22.1875 C22.90955926 23.07505235 22.90955926 23.07505235 26.625 23.1875 C29.11201523 21.40517085 29.11201523 21.40517085 31.0625 18.8125 C35.87966356 13.55294387 35.87966356 13.55294387 39.8125 12.9375 C47.20608533 13.42232527 51.43291399 17.51816393 56.375 22.5625 C56.95121094 23.12710937 57.52742187 23.69171875 58.12109375 24.2734375 C62.38789602 28.57007755 64.50159875 31.719475 64.8125 37.9375 C64.08230641 43.10727059 60.33046245 45.66720826 56.4609375 48.81640625 C54.20895234 51.18727282 54.20895234 51.18727282 54.8515625 54.96484375 C55.10679687 56.02832031 55.36203125 57.09179688 55.625 58.1875 C56.63820313 58.12949219 57.65140625 58.07148438 58.6953125 58.01171875 C70.8982234 57.52238658 70.8982234 57.52238658 74.5 60.5625 C78.76552297 65.83167543 77.80884565 70.99928708 77.8125 77.5625 C77.82474609 78.71234375 77.83699219 79.8621875 77.84960938 81.046875 C77.85154297 82.15289062 77.85347656 83.25890625 77.85546875 84.3984375 C77.85957764 85.41212402 77.86368652 86.42581055 77.86791992 87.47021484 C77.61884517 90.25634747 77.12356519 91.84844373 75.625 94.1875 C71.57368252 97.48336157 67.83156036 97.56231421 62.8125 97.375 C61.77319336 97.35469727 61.77319336 97.35469727 60.71289062 97.33398438 C59.01658735 97.29888845 57.32068864 97.24508943 55.625 97.1875 C54.73744765 100.47205926 54.73744765 100.47205926 54.625 104.1875 C56.40732915 106.67451523 56.40732915 106.67451523 59 108.625 C64.25955613 113.44216356 64.25955613 113.44216356 64.875 117.375 C64.39017473 124.76858533 60.29433607 128.99541399 55.25 133.9375 C54.68539062 134.51371094 54.12078125 135.08992187 53.5390625 135.68359375 C49.24242245 139.95039602 46.093025 142.06409875 39.875 142.375 C34.70522941 141.64480641 32.14529174 137.89296245 28.99609375 134.0234375 C26.62522718 131.77145234 26.62522718 131.77145234 22.84765625 132.4140625 C21.78417969 132.66929687 20.72070312 132.92453125 19.625 133.1875 C19.68300781 134.20070313 19.74101562 135.21390625 19.80078125 136.2578125 C20.29011342 148.4607234 20.29011342 148.4607234 17.25 152.0625 C12.02476126 156.29245517 6.89212703 155.48204164 0.375 155.5625 C-1.32462891 155.61857422 -1.32462891 155.61857422 -3.05859375 155.67578125 C-12.43706552 155.77473347 -12.43706552 155.77473347 -16.109375 152.7890625 C-19.67973228 148.68930742 -19.50021334 145.79182808 -19.4375 140.5625 C-19.43298828 139.85609375 -19.42847656 139.1496875 -19.42382812 138.421875 C-19.41203875 136.67704725 -19.39410324 134.932263 -19.375 133.1875 C-22.65955926 132.29994765 -22.65955926 132.29994765 -26.375 132.1875 C-28.86201523 133.96982915 -28.86201523 133.96982915 -30.8125 136.5625 C-35.62966356 141.82205613 -35.62966356 141.82205613 -39.5625 142.4375 C-46.95608533 141.95267473 -51.18291399 137.85683607 -56.125 132.8125 C-56.98931641 131.96558594 -56.98931641 131.96558594 -57.87109375 131.1015625 C-62.13789602 126.80492245 -64.25159875 123.655525 -64.5625 117.4375 C-63.83230641 112.26772941 -60.08046245 109.70779174 -56.2109375 106.55859375 C-53.95895234 104.18772718 -53.95895234 104.18772718 -54.6015625 100.41015625 C-54.85679687 99.34667969 -55.11203125 98.28320312 -55.375 97.1875 C-56.38820313 97.24550781 -57.40140625 97.30351562 -58.4453125 97.36328125 C-70.6482234 97.85261342 -70.6482234 97.85261342 -74.25 94.8125 C-78.47995517 89.58726126 -77.66954164 84.45462703 -77.75 77.9375 C-77.80607422 76.23787109 -77.80607422 76.23787109 -77.86328125 74.50390625 C-77.96223347 65.12543448 -77.96223347 65.12543448 -74.9765625 61.453125 C-70.87680742 57.88276772 -67.97932808 58.06228666 -62.75 58.125 C-61.69039063 58.13176758 -61.69039063 58.13176758 -60.609375 58.13867188 C-58.86454725 58.15046125 -57.119763 58.16839676 -55.375 58.1875 C-54.48744765 54.90294074 -54.48744765 54.90294074 -54.375 51.1875 C-56.15732915 48.70048477 -56.15732915 48.70048477 -58.75 46.75 C-64.00955613 41.93283644 -64.00955613 41.93283644 -64.625 38 C-64.14017473 30.60641467 -60.04433607 26.37958601 -55 21.4375 C-54.43539063 20.86128906 -53.87078125 20.28507812 -53.2890625 19.69140625 C-48.99242245 15.42460398 -45.843025 13.31090125 -39.625 13 C-34.45522941 13.73019359 -31.89529174 17.48203755 -28.74609375 21.3515625 C-26.37522718 23.60354766 -26.37522718 23.60354766 -22.59765625 22.9609375 C-21.53417969 22.70570313 -20.47070312 22.45046875 -19.375 22.1875 C-19.43300781 21.17429687 -19.49101562 20.16109375 -19.55078125 19.1171875 C-20.04011342 6.9142766 -20.04011342 6.9142766 -17 3.3125 C-11.73082457 -0.95302297 -6.56321292 0.00365435 0 0 Z M-6.375 13.1875 C-6.478125 15.229375 -6.58125 17.27125 -6.6875 19.375 C-6.92953696 24.1673319 -7.40942717 27.33972015 -10.375 31.1875 C-12.3125 32.515625 -12.3125 32.515625 -14.375 33.4375 C-15.055625 33.75203125 -15.73625 34.0665625 -16.4375 34.390625 C-21.14064463 36.32498287 -25.34406873 37.21156679 -30.375 36.1875 C-33.40932361 34.1855801 -35.81449606 31.74800394 -38.375 29.1875 C-39.365 28.5275 -40.355 27.8675 -41.375 27.1875 C-44.345 30.1575 -47.315 33.1275 -50.375 36.1875 C-49.446875 37.26 -48.51875 38.3325 -47.5625 39.4375 C-47.01722656 40.08460938 -46.47195313 40.73171875 -45.91015625 41.3984375 C-44.36503237 43.24506694 -44.36503237 43.24506694 -42.5 45.0625 C-40.15947476 49.48349213 -40.79412319 54.21707475 -42.171875 58.890625 C-45.04714837 66.45480572 -45.04714837 66.45480572 -48.375 69.1875 C-53.5297626 70.9057542 -58.97493463 70.81323804 -64.375 71.1875 C-64.375 75.4775 -64.375 79.7675 -64.375 84.1875 C-62.333125 84.290625 -60.29125 84.39375 -58.1875 84.5 C-53.3951681 84.74203696 -50.22277985 85.22192717 -46.375 88.1875 C-45.046875 90.125 -45.046875 90.125 -44.125 92.1875 C-43.81046875 92.868125 -43.4959375 93.54875 -43.171875 94.25 C-41.23751713 98.95314463 -40.35093321 103.15656873 -41.375 108.1875 C-43.3769199 111.22182361 -45.81449606 113.62699606 -48.375 116.1875 C-49.035 117.1775 -49.695 118.1675 -50.375 119.1875 C-45.92 123.6425 -45.92 123.6425 -41.375 128.1875 C-40.3025 127.259375 -39.23 126.33125 -38.125 125.375 C-37.47789062 124.82972656 -36.83078125 124.28445313 -36.1640625 123.72265625 C-34.31743306 122.17753237 -34.31743306 122.17753237 -32.5 120.3125 C-28.07900787 117.97197476 -23.34542525 118.60662319 -18.671875 119.984375 C-11.10769428 122.85964837 -11.10769428 122.85964837 -8.375 126.1875 C-6.6567458 131.3422626 -6.74926196 136.78743463 -6.375 142.1875 C-2.085 142.1875 2.205 142.1875 6.625 142.1875 C6.728125 140.145625 6.83125 138.10375 6.9375 136 C7.17953696 131.2076681 7.65942717 128.03527985 10.625 124.1875 C12.5625 122.859375 12.5625 122.859375 14.625 121.9375 C15.305625 121.62296875 15.98625 121.3084375 16.6875 120.984375 C21.39064463 119.05001713 25.59406873 118.16343321 30.625 119.1875 C33.65932361 121.1894199 36.06449606 123.62699606 38.625 126.1875 C40.11 127.1775 40.11 127.1775 41.625 128.1875 C44.595 125.2175 47.565 122.2475 50.625 119.1875 C49.696875 118.115 48.76875 117.0425 47.8125 115.9375 C46.74898102 114.68836685 45.68639924 113.43843481 44.625 112.1875 C44.026875 111.48625 43.42875 110.785 42.8125 110.0625 C41.28884297 107.65672574 40.91254997 106.03936546 40.625 103.1875 C41.515625 99.7421875 41.515625 99.7421875 42.875 96.0625 C43.53242188 94.23332031 43.53242188 94.23332031 44.203125 92.3671875 C45.46029926 89.5558143 46.20034163 87.99974466 48.625 86.1875 C53.7797626 84.4692458 59.22493463 84.56176196 64.625 84.1875 C64.625 79.8975 64.625 75.6075 64.625 71.1875 C62.583125 71.084375 60.54125 70.98125 58.4375 70.875 C53.6451681 70.63296304 50.47277985 70.15307283 46.625 67.1875 C45.296875 65.25 45.296875 65.25 44.375 63.1875 C44.06046875 62.506875 43.7459375 61.82625 43.421875 61.125 C41.48751713 56.42185537 40.60093321 52.21843127 41.625 47.1875 C43.6269199 44.15317639 46.06449606 41.74800394 48.625 39.1875 C49.615 37.7025 49.615 37.7025 50.625 36.1875 C47.655 33.2175 44.685 30.2475 41.625 27.1875 C40.5525 28.115625 39.48 29.04375 38.375 30 C37.72789062 30.54527344 37.08078125 31.09054687 36.4140625 31.65234375 C34.56743306 33.19746763 34.56743306 33.19746763 32.75 35.0625 C28.32900787 37.40302524 23.59542525 36.76837681 18.921875 35.390625 C11.35769428 32.51535163 11.35769428 32.51535163 8.625 29.1875 C6.9067458 24.0327374 6.99926196 18.58756537 6.625 13.1875 C2.335 13.1875 -1.955 13.1875 -6.375 13.1875 Z " fill="#EF7D1C" transform="translate(359.375,313.8125)"/>
<path d="M0 0 C7.1158535 5.6926828 13.10167226 13.09868557 14.8125 22.25 C15.51349011 33.82981731 14.96341072 43.12676578 7.4765625 52.40234375 C1.01329553 59.57869416 -6.70921167 64.85783354 -16.54296875 65.453125 C-28.17051982 65.59535804 -36.34117841 64.21730021 -45.1875 56.25 C-52.8186496 48.74221772 -56.29226686 40.77405667 -56.5 30.125 C-56.54314669 20.23122478 -53.4763801 11.62151885 -46.4375 4.47265625 C-32.68871398 -8.22885896 -16.11077592 -8.84513188 0 0 Z M-39.7421875 17.15234375 C-43.6809863 22.86892471 -43.92738152 28.50569542 -43.1875 35.25 C-41.36354112 41.88782504 -36.75233184 46.41575832 -31.1875 50.25 C-25.40926203 53.0459216 -19.1318422 53.33383664 -12.94140625 51.6328125 C-6.76814802 48.91320946 -1.94173088 43.87541049 0.984375 37.828125 C2.83875004 32.05507065 2.77201118 25.58287272 0.3125 20 C-3.1556069 14.00177952 -8.59382121 9.36796955 -15.1875 7.25 C-26.14259146 5.84172217 -32.71110364 8.92761076 -39.7421875 17.15234375 Z " fill="#EF7D1C" transform="translate(380.1875,361.75)"/>
<path d="M0 0 C2.875 0.875 2.875 0.875 4.875 3.875 C5.62665115 8.05491373 4.80278705 10.36936622 2.48828125 13.765625 C1.40202147 15.22924549 0.30075125 16.68180324 -0.8125 18.125 C-2.01469754 19.73409517 -3.21650989 21.3434782 -4.41796875 22.953125 C-5.34488525 24.17999023 -5.34488525 24.17999023 -6.29052734 25.43164062 C-9.12441591 29.20613581 -11.87235386 33.04109255 -14.625 36.875 C-15.70269684 38.36749676 -16.78082378 39.85968304 -17.859375 41.3515625 C-20.08113128 44.42753194 -22.29945332 47.5059423 -24.515625 50.5859375 C-41.68735785 74.43735785 -41.68735785 74.43735785 -45.125 77.875 C-51.17740175 78.42521834 -51.17740175 78.42521834 -54.0625 76.75 C-55.69359973 73.87158871 -55.53473457 72.17563956 -55.125 68.875 C-53.52603893 65.90049329 -51.49669317 63.29449703 -49.4375 60.625 C-48.23530246 59.01590483 -47.03349011 57.4065218 -45.83203125 55.796875 C-45.21408691 54.97896484 -44.59614258 54.16105469 -43.95947266 53.31835938 C-41.12558409 49.54386419 -38.37764614 45.70890745 -35.625 41.875 C-34.54730316 40.38250324 -33.46917622 38.89031696 -32.390625 37.3984375 C-30.16886872 34.32246806 -27.95054668 31.2440577 -25.734375 28.1640625 C-22.54081479 23.72740864 -19.33664033 19.29858008 -16.125 14.875 C-15.67044434 14.24706543 -15.21588867 13.61913086 -14.74755859 12.97216797 C-13.52575196 11.28902479 -12.29590579 9.61215384 -11.0625 7.9375 C-10.05509766 6.56271484 -10.05509766 6.56271484 -9.02734375 5.16015625 C-6.18228378 1.74257908 -4.5611057 -0.18244423 0 0 Z " fill="#DD4D0D" transform="translate(443.125,66.125)"/>
</svg>
