<?xml version="1.0" encoding="UTF-8"?>
<svg version="1.1" xmlns="http://www.w3.org/2000/svg" width="512" height="512">
<path d="M0 0 C1.01881012 -0.00297112 2.03762024 -0.00594224 3.0873034 -0.0090034 C6.5056593 -0.01768409 9.92398014 -0.01919812 13.34234619 -0.02069092 C15.79150467 -0.02531951 18.24066242 -0.03034423 20.68981934 -0.03573608 C27.34694137 -0.04885759 34.0040497 -0.05534134 40.66118145 -0.05974674 C44.82004359 -0.062512 48.97890341 -0.06674986 53.13776398 -0.07125092 C64.65868356 -0.08344108 76.1796013 -0.09374104 87.70052719 -0.09712601 C88.80597192 -0.09745536 88.80597192 -0.09745536 89.93374886 -0.09779136 C91.0417949 -0.09811878 91.0417949 -0.09811878 92.17222571 -0.09845281 C93.66903671 -0.09889627 95.1658477 -0.09934283 96.66265869 -0.09979248 C97.40512408 -0.10001391 98.14758947 -0.10023534 98.91255382 -0.10046348 C110.9403896 -0.10441065 122.96816476 -0.12186332 134.99597713 -0.145152 C147.3528669 -0.16888422 159.70972627 -0.1813287 172.06663918 -0.18249393 C179.00132567 -0.18340961 185.93593316 -0.1891351 192.87059784 -0.20731354 C199.3942512 -0.22435467 205.91778127 -0.22595318 212.44145966 -0.21717453 C214.83394777 -0.21640378 217.22644391 -0.22075181 219.61891174 -0.23063278 C222.88902312 -0.24334493 226.15860306 -0.23747901 229.42871094 -0.22705078 C230.37182184 -0.23510719 231.31493274 -0.24316359 232.28662276 -0.25146413 C238.58589491 -0.20459506 245.63408689 0.23715902 250.59512115 4.55697513 C254.89467185 9.51487469 255.11253633 13.75307734 255.08857727 20.01805115 C255.08985891 21.23471111 255.08985891 21.23471111 255.09116644 22.47595006 C255.09281795 25.20292204 255.08730521 27.92983297 255.08184814 30.65679932 C255.08156618 32.60795592 255.0817242 34.55911263 255.08229065 36.51026917 C255.08257825 41.81571669 255.07668758 47.12114172 255.06971669 52.42658401 C255.06347691 57.96794633 255.06287886 63.50930914 255.06169128 69.05067444 C255.05857982 79.54787222 255.0503689 90.04505963 255.04034179 100.54225284 C255.02917494 112.4913077 255.02366876 124.44036305 255.01864636 136.38942182 C255.00818615 160.97310094 254.99059026 185.55677084 254.96832275 210.14044189 C255.78309082 210.11723877 256.59785889 210.09403564 257.43731689 210.07012939 C258.51102539 210.05208252 259.58473389 210.03403564 260.690979 210.01544189 C261.75324707 209.99223877 262.81551514 209.96903564 263.90997314 209.94512939 C269.3827669 210.29463327 272.74665862 212.74112104 276.38800049 216.67364502 C281.09224266 223.17980186 280.71080871 229.86287143 280.59332275 237.64044189 C280.62232666 239.56050049 280.62232666 239.56050049 280.6519165 241.51934814 C280.61367625 248.91501321 280.14200479 254.56134221 274.96832275 260.14044189 C269.07128591 264.83400183 264.55260589 265.28952455 257.21798992 265.27186966 C256.42868958 265.27392229 255.63938924 265.27597493 254.82617071 265.27808976 C252.16518045 265.28377166 249.50424174 265.28230105 246.84324646 265.28088379 C244.92262551 265.28346674 243.0020051 265.2864797 241.08138543 265.28988719 C235.79080104 265.2979686 230.50023021 265.29974739 225.20964038 265.30048466 C219.50877001 265.30233321 213.8079067 265.30987949 208.10704041 265.31661987 C195.63613156 265.33021136 183.16522592 265.33622905 170.6943109 265.34063053 C162.91106266 265.34339132 155.12781566 265.34762835 147.34456825 265.3521347 C125.80501833 265.36432795 104.26547003 265.37466286 82.72591686 265.3780098 C81.33298209 265.37823143 79.94004732 265.37845321 78.54711254 265.37867515 C77.15080431 265.37889579 75.75449608 265.37911627 74.35818785 265.3793366 C71.55692748 265.37977915 68.75566711 265.38022626 65.95440674 265.38067627 C65.2598569 265.38078566 64.56530707 265.38089505 63.84971026 265.38100776 C41.32351289 265.38463925 18.79734769 265.40056304 -3.72883736 265.42386663 C-27.54135507 265.44845595 -51.35385067 265.46217547 -75.16638201 265.46337771 C-88.14844853 265.46429542 -101.13047292 265.47007184 -114.11252785 265.48819733 C-125.16514843 265.50357434 -136.21771387 265.50873294 -147.2703431 265.50045922 C-152.91164695 265.49654434 -158.55283967 265.49752318 -164.19412994 265.51151657 C-169.35646494 265.52420507 -174.51860475 265.52310253 -179.68093928 265.51092586 C-181.55038192 265.50896009 -183.41983816 265.51208765 -185.28926168 265.52077022 C-187.82768619 265.53181534 -190.36541605 265.5244081 -192.90382099 265.51237869 C-193.99595973 265.52377148 -193.99595973 265.52377148 -195.11016187 265.53539443 C-201.45203052 265.47038424 -205.9536826 263.93507363 -210.78167725 259.76544189 C-216.85341729 252.68174518 -216.54958336 246.89291169 -216.53167725 237.82794189 C-216.56003662 236.53436768 -216.588396 235.24079346 -216.61761475 233.90802002 C-216.63290557 226.43463069 -216.28197331 220.76878087 -211.03167725 215.14044189 C-206.57892272 210.93473755 -202.85308168 209.88222692 -196.7543335 210.01544189 C-195.680625 210.03348877 -194.6069165 210.05153564 -193.50067139 210.07012939 C-192.68590332 210.09333252 -191.87113525 210.11653564 -191.03167725 210.14044189 C-191.03536442 209.59636688 -191.03905159 209.05229187 -191.04285049 208.49172974 C-191.13134349 195.22845876 -191.19719995 181.9652398 -191.23892593 168.70173645 C-191.25978409 162.28747543 -191.28807008 155.87342778 -191.33343506 149.45928955 C-191.37695493 143.26714994 -191.40082769 137.07521534 -191.41118622 130.88293457 C-191.41856647 128.52267226 -191.43297837 126.16242093 -191.45459747 123.80224609 C-191.48371214 120.49155592 -191.48762974 117.18170862 -191.48577881 113.87091064 C-191.50015991 112.89914383 -191.51454102 111.92737701 -191.52935791 110.92616272 C-191.4932206 104.93699896 -190.89173227 99.92074105 -187.03167725 95.14044189 C-180.73739313 89.46585619 -171.80697589 90.60425218 -163.8949585 90.68634033 C-162.36670461 90.68747 -160.83844855 90.68683262 -159.31019592 90.68457031 C-155.18044369 90.68342688 -151.05116014 90.70687559 -146.92151642 90.73486614 C-142.59872337 90.75994201 -138.27591852 90.76222666 -133.95306396 90.76696777 C-125.77568039 90.77937943 -117.59851178 90.81217641 -109.42122269 90.85236573 C-100.1080646 90.89713992 -90.79489602 90.91908466 -81.48165703 90.93914747 C-62.33154208 90.98091074 -43.18162698 91.05122743 -24.03167725 91.14044189 C-24.04055969 90.15374008 -24.04944214 89.16703827 -24.05859375 88.1504364 C-24.13979165 78.83736253 -24.19969636 69.52436079 -24.23892593 60.21101284 C-24.25977257 55.42325997 -24.28803666 50.63579358 -24.33343506 45.84820557 C-24.3769973 41.22515624 -24.40083634 36.60238193 -24.41118622 31.97914314 C-24.41855899 30.21812678 -24.4329564 28.45712494 -24.45459747 26.69622612 C-24.48377008 24.22344688 -24.48762757 21.75179414 -24.48577881 19.27886963 C-24.50015991 18.55597748 -24.51454102 17.83308533 -24.52935791 17.08828735 C-24.48510376 11.59335614 -23.05536411 8.56577388 -20.03167725 4.14044189 C-13.99745432 -0.50126805 -7.26939966 -0.00661616 0 0 Z M-9.03167725 15.14044189 C-9.03532288 16.11239502 -9.03896851 17.08434814 -9.04272461 18.08575439 C-9.07974051 27.26633453 -9.13758503 36.44658128 -9.21557999 45.62690735 C-9.25501095 50.34611356 -9.28722086 55.06513439 -9.30267334 59.78448486 C-9.31786886 64.34291746 -9.35236553 68.9008403 -9.39998627 73.45904541 C-9.41477028 75.19402626 -9.42271655 76.9290799 -9.4235611 78.66412354 C-9.42594158 81.1033906 -9.4531057 83.54126113 -9.48577881 85.98028564 C-9.47823326 87.04520485 -9.47823326 87.04520485 -9.47053528 88.13163757 C-9.58118309 93.505565 -10.85972453 97.82581568 -14.03167725 102.14044189 C-18.21624016 105.05598105 -21.64401368 105.51891346 -26.67556763 105.53916931 C-27.31772834 105.54581614 -27.95988906 105.55246297 -28.62150919 105.55931121 C-30.75888436 105.5778644 -32.89569594 105.57534128 -35.03314209 105.57281494 C-36.57096136 105.58183684 -38.10877344 105.59216512 -39.64657593 105.60369873 C-43.81139614 105.63124471 -47.9760798 105.64054997 -52.14097929 105.6465528 C-56.49722916 105.65594273 -60.85337729 105.68214663 -65.20956421 105.70655823 C-73.45418138 105.75020989 -81.69877879 105.77876504 -89.94347632 105.80188161 C-101.08766569 105.83400167 -112.23173733 105.8894721 -123.37583733 105.94362736 C-140.92774895 106.02830668 -158.47961451 106.08181372 -176.03167725 106.14044189 C-176.03167725 140.46044189 -176.03167725 174.78044189 -176.03167725 210.14044189 C-38.75167725 210.14044189 98.52832275 210.14044189 239.96832275 210.14044189 C239.96832275 146.12044189 239.96832275 82.10044189 239.96832275 16.14044189 C238.00144107 14.17356021 234.96703358 15.01738226 232.34830898 15.01136059 C230.90524548 15.01572985 230.90524548 15.01572985 229.43302917 15.02018738 C228.41945376 15.01933295 227.40587835 15.01847853 226.36158854 15.01759821 C222.93743229 15.01594036 219.51332416 15.02146976 216.08917236 15.0269165 C213.64570619 15.02719834 211.20223993 15.02704072 208.7587738 15.026474 C203.48384409 15.02624568 198.20892959 15.02909706 192.93400383 15.03471184 C185.30726483 15.04282468 177.68053182 15.04544184 170.05378897 15.04669983 C157.68113994 15.04889069 145.3084975 15.05555169 132.93585205 15.06500244 C120.91404249 15.07417568 108.89223471 15.08125694 96.87042236 15.08551025 C96.12991018 15.08577298 95.389398 15.0860357 94.62644606 15.08630639 C90.91166704 15.08761138 87.196888 15.0888751 83.48210895 15.09011829 C52.64417543 15.10049196 21.80625009 15.11818532 -9.03167725 15.14044189 Z M-201.03167725 227.14044189 C-201.48195403 230.62098138 -201.35575696 234.13410381 -201.34417725 237.64044189 C-201.36029053 238.61626221 -201.37640381 239.59208252 -201.39300537 240.59747314 C-201.3936499 241.52946533 -201.39429443 242.46145752 -201.3949585 243.42169189 C-201.39793945 244.27827393 -201.40092041 245.13485596 -201.4039917 246.01739502 C-201.28112793 246.71800049 -201.15826416 247.41860596 -201.03167725 248.14044189 C-197.38361985 250.57248016 -194.70238622 250.41919023 -190.48692322 250.39212418 C-189.70770858 250.39503106 -188.92849394 250.39793794 -188.12566674 250.40093291 C-185.49294154 250.40827989 -182.86044599 250.4012678 -180.22772217 250.39440918 C-178.32986169 250.39671176 -176.43200211 250.39988691 -174.5341444 250.40386367 C-169.30196629 250.41224822 -164.0698607 250.40806986 -158.83768225 250.40189123 C-153.20162802 250.39738265 -147.56558662 250.40434255 -141.92953491 250.40985107 C-130.88179364 250.41876382 -119.83407949 250.41681471 -108.78633714 250.41102579 C-99.81093513 250.40651669 -90.83554075 250.40589313 -81.86013794 250.40807343 C-80.58474441 250.40837989 -79.30935088 250.40868636 -77.99530905 250.40900211 C-75.40471085 250.40964153 -72.81411264 250.41028996 -70.22351444 250.41094729 C-46.60133286 250.41649322 -22.97916949 250.4107331 0.64300902 250.4002621 C22.21987935 250.39077047 43.79672607 250.39161971 65.37359619 250.40118408 C89.60003834 250.41188696 113.8264637 250.41610672 138.0529089 250.40995955 C140.63420041 250.40932243 143.21549193 250.40869369 145.79678345 250.40807343 C147.06696707 250.40776487 148.33715069 250.40745632 149.64582473 250.40713842 C158.61478765 250.40540854 167.58374223 250.40833288 176.55270386 250.41303253 C187.47663399 250.41863052 198.40053536 250.41714779 209.32446218 250.40647104 C214.90245475 250.40119971 220.48039931 250.39918236 226.05839157 250.40576935 C231.15822812 250.4117008 236.25797184 250.40850039 241.35779989 250.39781424 C243.20902901 250.39556824 245.06026588 250.39674312 246.91149008 250.40156582 C249.41562994 250.40759226 251.91944616 250.40146587 254.42356873 250.39212418 C255.15282905 250.39680651 255.88208936 250.40148884 256.63344848 250.40631306 C260.30679545 250.37866939 261.82322536 250.23717349 264.96832275 248.14044189 C265.41661467 245.95051675 265.41661467 245.95051675 265.331604 243.42169189 C265.33095947 242.48969971 265.33031494 241.55770752 265.32965088 240.59747314 C265.30548096 239.13374268 265.30548096 239.13374268 265.28082275 237.64044189 C265.28404541 236.66462158 265.28726807 235.68880127 265.29058838 234.68341064 C265.58353104 229.37163827 265.58353104 229.37163827 262.96832275 225.14044189 C260.44685538 224.94342245 258.03524219 224.87269734 255.5125885 224.88875961 C254.73085136 224.88585273 253.94911422 224.88294585 253.14368808 224.87995088 C250.49637093 224.87259049 247.8492812 224.87962212 245.20196533 224.88647461 C243.29600562 224.88417256 241.3900468 224.88099777 239.48408985 224.87702012 C234.22491878 224.86862832 228.96581977 224.87281718 223.70664835 224.87899256 C218.0433289 224.88349821 212.38002227 224.87654271 206.71670532 224.87103271 C195.61368294 224.86211681 184.51068752 224.86407048 173.40766406 224.869858 C164.38789316 224.87436587 155.36812985 224.87499119 146.34835815 224.87281036 C145.06698969 224.8725039 143.78562122 224.87219743 142.46542341 224.87188168 C139.86274393 224.87124226 137.26006446 224.87059383 134.65738499 224.8699365 C110.92136333 224.86438969 87.18535804 224.87015214 63.44933899 224.88062169 C41.76522932 224.89011343 20.08114315 224.88926419 -1.60296631 224.87969971 C-25.9458539 224.86899846 -50.2887255 224.86477615 -74.63161564 224.87092423 C-77.22498131 224.87156137 -79.81834698 224.87219011 -82.41171265 224.87281036 C-83.68786019 224.87311891 -84.96400773 224.87342747 -86.27882642 224.87374537 C-95.29283124 224.87547574 -104.30682776 224.87254986 -113.3208313 224.86785126 C-124.29861298 224.86225507 -135.27636605 224.86373217 -146.25414443 224.87441275 C-151.86035981 224.87968653 -157.46652739 224.88169733 -163.07274246 224.87511444 C-168.19723875 224.86918799 -173.32164259 224.87237497 -178.44613039 224.88306955 C-180.30746577 224.8853177 -182.16880883 224.88413596 -184.03013933 224.87931797 C-186.54552084 224.87330265 -189.06057886 224.87940626 -191.57594299 224.88875961 C-192.31132486 224.88407728 -193.04670674 224.87939495 -193.80437291 224.87457073 C-197.86800901 224.78610912 -197.86800901 224.78610912 -201.03167725 227.14044189 Z " fill="#E96F17" transform="translate(224.03167724609375,202.85955810546875)"/>
<path d="M0 0 C0.69394491 -0.00453111 1.38788983 -0.00906223 2.10286337 -0.01373065 C4.43359745 -0.02641465 6.76409906 -0.02475174 9.09486389 -0.02310181 C10.76367494 -0.02908452 12.43248322 -0.03588947 14.10128784 -0.04345703 C18.63843891 -0.06114928 23.17551457 -0.06581373 27.71269679 -0.0670886 C31.49763335 -0.06898592 35.28255227 -0.07634143 39.06748205 -0.08343279 C47.99523819 -0.09972621 56.92295398 -0.10460083 65.85072327 -0.10317993 C75.06720808 -0.10197788 84.28345895 -0.12309023 93.49988455 -0.15466726 C101.40738433 -0.18079651 109.31480754 -0.19154866 117.22235018 -0.19026911 C121.94757179 -0.18975854 126.67258551 -0.19549429 131.39776421 -0.21662521 C135.84080708 -0.23595158 140.28344254 -0.23617072 144.72649956 -0.22159195 C146.35834852 -0.21949584 147.99022261 -0.22425232 149.62202835 -0.23631287 C151.84770406 -0.25169895 154.07196327 -0.24250324 156.29760742 -0.22705078 C158.16668967 -0.22868508 158.16668967 -0.22868508 160.07353115 -0.2303524 C163.21229553 0.26742554 163.21229553 0.26742554 165.61112309 2.05986595 C168.022903 5.38502176 167.80367961 8.73372622 167.77870178 12.68930054 C167.78490036 13.50811707 167.79109894 14.32693359 167.79748535 15.17056274 C167.80458063 16.90205702 167.80141451 18.63361957 167.78871155 20.36508179 C167.77491166 22.99529164 167.80883578 25.62189478 167.84706116 28.25180054 C167.84801311 29.9393014 167.84614945 31.62680666 167.84120178 33.31430054 C167.85445999 34.09166565 167.8677182 34.86903076 167.88137817 35.66995239 C167.78132447 41.63554902 165.92368445 45.61672744 162.21229553 50.26742554 C158.60583915 53.54602225 156.26165942 54.4648662 151.50917053 54.36117554 C150.30019104 54.3408728 150.30019104 54.3408728 149.06678772 54.32015991 C148.4548053 54.30275757 147.84282288 54.28535522 147.21229553 54.26742554 C147.2332428 54.89197632 147.25419006 55.5165271 147.27577209 56.16000366 C147.35965397 59.02897614 147.41118064 61.89768962 147.46229553 64.76742554 C147.49581116 65.74969116 147.52932678 66.73195679 147.56385803 67.74398804 C147.64929505 74.15176461 147.17412893 79.08411443 143.21229553 84.26742554 C137.34282666 89.50758455 131.81335031 89.92066248 124.21229553 89.57992554 C123.24678772 89.55736694 122.28127991 89.53480835 121.28651428 89.51156616 C118.92677679 89.45315682 116.5703933 89.37132762 114.21229553 89.26742554 C114.23561195 91.0160363 114.23561195 91.0160363 114.25939941 92.79997253 C114.40167746 103.818766 114.50641446 114.83737162 114.57498074 125.85687733 C114.61141766 131.5213804 114.66079363 137.18513834 114.7403717 142.84921265 C114.81677169 148.32171067 114.85835748 153.79349478 114.87643623 159.26648521 C114.88930948 161.34803179 114.91444809 163.42954197 114.95240593 165.51078224 C115.31082363 185.98873449 115.31082363 185.98873449 107.21229553 195.26742554 C106.12858758 196.78791446 105.05622329 198.31663021 104.00135803 199.85726929 C102.95055724 201.30930868 101.8958333 202.7585167 100.83729553 204.20492554 C100.27784241 204.97127319 99.71838928 205.73762085 99.14198303 206.52719116 C98.02259993 208.05864075 96.901871 209.58910771 95.77967834 211.11849976 C94.35266075 213.07498089 92.94676616 215.04444582 91.54823303 217.02133179 C90.77737366 218.09254272 90.00651428 219.16375366 89.21229553 220.26742554 C88.22229553 221.65961304 88.22229553 221.65961304 87.21229553 223.07992554 C84.09824871 226.48591425 81.27684228 227.15129316 76.77479553 227.64242554 C71.89894772 227.1291784 68.88711849 225.18887681 65.72181702 221.5574646 C64.13987956 219.47600908 62.63624149 217.35560682 61.14979553 215.20492554 C60.3236676 214.03510132 60.3236676 214.03510132 59.48085022 212.84164429 C57.71126229 210.32596524 55.95985189 207.79845139 54.21229553 205.26742554 C53.60208557 204.38715698 52.99187561 203.50688843 52.36317444 202.59994507 C40.05997062 184.82865067 40.05997062 184.82865067 40.09877014 175.31967163 C40.09862411 174.39279037 40.09847809 173.46590912 40.09832764 172.51094055 C40.09902607 169.43755783 40.10681526 166.36423521 40.11463928 163.29086304 C40.11650371 161.16379835 40.11792749 159.03673324 40.118927 156.90966797 C40.12275025 151.30366842 40.13257891 145.69769466 40.14363098 140.09170532 C40.15384923 134.37424061 40.15842551 128.65677174 40.16346741 122.93930054 C40.17420133 111.71533085 40.19127546 100.49138034 40.21229553 89.26742554 C39.31305359 89.29884644 39.31305359 89.29884644 38.39564514 89.3309021 C35.64720311 89.41467828 32.89903061 89.46627698 30.14979553 89.51742554 C29.20684631 89.55094116 28.26389709 89.58445679 27.29237366 89.61898804 C21.00270193 89.70664897 17.32002695 89.01578707 12.21229553 85.26742554 C8.56159052 80.5599375 7.08050197 77.06771122 7.11463928 71.16195679 C7.11786194 70.17904663 7.12108459 69.19613647 7.12440491 68.18344116 C7.13278381 67.15928101 7.14116272 66.13512085 7.14979553 65.07992554 C7.15430725 64.04416382 7.15881897 63.0084021 7.16346741 61.94125366 C7.17525543 59.38325288 7.19171038 56.82536821 7.21229553 54.26742554 C6.13335022 54.2996521 5.05440491 54.33187866 3.94276428 54.36508179 C-0.71149102 54.24324264 -3.27190828 53.25105407 -6.78770447 50.26742554 C-12.71501748 42.71054913 -11.97404846 34.01458545 -11.9730072 24.92025757 C-11.9751977 22.77406089 -11.99339351 20.62837549 -12.01231384 18.48226929 C-12.01524764 17.10857311 -12.01723253 15.73487452 -12.01817322 14.36117554 C-12.0222821 13.12045288 -12.02639099 11.87973022 -12.03062439 10.60140991 C-11.79182254 7.32394458 -11.33774358 5.15007891 -9.78770447 2.26742554 C-6.12500533 -0.17437389 -4.3680652 0.01175295 0 0 Z M3.21229553 15.26742554 C1.921889 27.69008319 1.921889 27.69008319 4.21229553 39.26742554 C23.361442 39.29075326 42.5105856 39.30840409 61.65974331 39.31923771 C70.55039379 39.32440094 79.44103547 39.33144414 88.3316803 39.34286499 C96.0779078 39.35281101 103.82412892 39.35927877 111.57036263 39.36151403 C115.67450472 39.36282128 119.77862856 39.365908 123.88276482 39.37315559 C127.74124194 39.37991453 131.59969318 39.38204276 135.45817566 39.38053322 C136.87842003 39.3808096 138.29866522 39.38281548 139.7189045 39.38663101 C141.64971423 39.3915662 143.58053768 39.38982357 145.51135254 39.38768005 C147.13601267 39.38906274 147.13601267 39.38906274 148.79349422 39.39047337 C151.16226632 39.5408776 151.16226632 39.5408776 152.21229553 38.26742554 C152.21229553 30.67742554 152.21229553 23.08742554 152.21229553 15.26742554 C103.04229553 15.26742554 53.87229553 15.26742554 3.21229553 15.26742554 Z M22.21229553 54.26742554 C22.21229553 60.53742554 22.21229553 66.80742554 22.21229553 73.26742554 C23.76982864 74.82495864 25.25921754 74.39338061 27.42591858 74.39440918 C28.33457672 74.397229 29.24323486 74.40004883 30.1794281 74.4029541 C31.18414154 74.40092987 32.18885498 74.39890564 33.22401428 74.39682007 C34.27593964 74.39857239 35.32786499 74.40032471 36.41166687 74.40213013 C39.90772627 74.40655097 43.40373557 74.40360983 46.89979553 74.40023804 C49.31735748 74.40091101 51.73491936 74.40188098 54.15248108 74.40313721 C59.22678774 74.4046145 64.30107684 74.40245863 69.37538147 74.39779663 C75.89614256 74.39209933 82.41686249 74.39537817 88.93762207 74.40136909 C93.93198459 74.40497387 98.92633727 74.40383651 103.92070007 74.4012413 C106.32579045 74.4005718 108.73088171 74.40140125 111.13597107 74.40372086 C114.49086389 74.40624601 117.84568904 74.40240871 121.20057678 74.39682007 C122.70764694 74.39985641 122.70764694 74.39985641 124.24516296 74.4029541 C125.60815018 74.39872437 125.60815018 74.39872437 126.99867249 74.39440918 C128.18998528 74.39384364 128.18998528 74.39384364 129.40536499 74.39326668 C131.23396365 74.46451466 131.23396365 74.46451466 132.21229553 73.26742554 C132.21229553 66.99742554 132.21229553 60.72742554 132.21229553 54.26742554 C95.91229553 54.26742554 59.61229553 54.26742554 22.21229553 54.26742554 Z M55.21229553 89.26742554 C55.21229553 99.82742554 55.21229553 110.38742554 55.21229553 121.26742554 C69.91300425 114.6737253 84.57287723 107.99602416 99.21229553 101.26742554 C99.21229553 97.30742554 99.21229553 93.34742554 99.21229553 89.26742554 C84.69229553 89.26742554 70.17229553 89.26742554 55.21229553 89.26742554 Z M90.11463928 121.40805054 C89.40634476 121.73150452 88.69805023 122.0549585 87.96829224 122.38821411 C85.69382785 123.42776049 83.42176887 124.47244764 81.14979553 125.51742554 C78.90231097 126.54698866 76.65434613 127.5754966 74.40628052 128.60379028 C73.00774649 129.24395647 71.60963354 129.88504377 70.21203613 130.5272522 C65.22876899 132.81479954 60.22403827 135.03998432 55.21229553 137.26742554 C55.21229553 145.84742554 55.21229553 154.42742554 55.21229553 163.26742554 C70.10582893 157.00187011 84.67120824 150.31494637 99.21229553 143.26742554 C99.21229553 135.01742554 99.21229553 126.76742554 99.21229553 118.26742554 C95.90146542 118.26742554 93.07661479 120.04012187 90.11463928 121.40805054 Z M93.22157288 162.01156616 C92.40087311 162.39196045 91.58017334 162.77235474 90.73460388 163.16427612 C89.8481015 163.57987793 88.96159912 163.99547974 88.04823303 164.42367554 C87.14102509 164.84540039 86.23381714 165.26712524 85.29911804 165.70162964 C82.39350363 167.05333408 79.49038866 168.41031579 76.58729553 169.76742554 C74.62131169 170.68313799 72.65516787 171.59850706 70.68885803 172.51351929 C65.86147181 174.76083592 61.03612884 177.01249359 56.21229553 179.26742554 C57.47260834 182.7039609 58.90973176 185.50073012 61.07557678 188.44711304 C61.63309631 189.2115271 62.19061584 189.97594116 62.76502991 190.76351929 C63.63611389 191.94107788 63.63611389 191.94107788 64.52479553 193.14242554 C65.66684351 194.70223286 66.80877224 196.2621275 67.95057678 197.82211304 C68.49923401 198.56815796 69.04789124 199.31420288 69.61317444 200.08285522 C71.84020844 203.12522167 74.02820173 206.19412281 76.21229553 209.26742554 C79.71373527 208.10027896 80.12556201 207.32424888 82.10292053 204.32992554 C82.92083069 203.10982788 82.92083069 203.10982788 83.75526428 201.86508179 C84.31858459 201.00785522 84.88190491 200.15062866 85.46229553 199.26742554 C86.568664 197.59876156 87.67804044 195.93208802 88.79042053 194.26742554 C89.34334778 193.43138794 89.89627502 192.59535034 90.46595764 191.73397827 C92.20987473 189.27084472 94.12121172 187.07239507 96.10682678 184.80258179 C99.98830487 179.89209586 100.05557446 175.78269129 99.64979553 169.70492554 C99.6182135 168.79162476 99.58663147 167.87832397 99.55409241 166.93734741 C99.47248132 164.71053059 99.35816925 162.4907975 99.21229553 160.26742554 C96.76907343 160.26742554 95.43710623 160.97855674 93.22157288 162.01156616 Z " fill="#E66615" transform="translate(62.78770446777344,43.732574462890625)"/>
</svg>
