<?xml version="1.0" encoding="UTF-8"?>
<svg version="1.1" xmlns="http://www.w3.org/2000/svg" width="512" height="512">
<path d="M0 0 C8.57681911 -0.34307276 16.90843093 1.4287743 24.75610352 4.86254883 C33.325378 8.31045083 42.34360031 10.44503283 51.25 12.8359375 C53.25298997 13.37824437 55.25584093 13.92106492 57.25856018 14.46437073 C62.51869682 15.88980043 67.78077423 17.30793265 73.04327393 18.72460938 C78.34066724 20.15220567 83.63602169 21.58732323 88.93164062 23.02148438 C100.22335088 26.077095 111.51598424 29.12908697 122.81640625 32.15234375 C123.70376087 32.39009144 124.59111549 32.62783913 125.50535965 32.87279129 C128.10840026 33.56906578 130.712353 34.26181201 133.31665039 34.95336914 C134.09256499 35.16111434 134.8684796 35.36885954 135.66790676 35.58290005 C139.57603632 36.61614128 143.44555292 37.50977941 147.44140625 38.15234375 C156.28443816 39.8440542 162.76359144 44.81591913 167.81640625 52.15234375 C173.12774102 61.82252468 173.98624666 70.64081571 170.94921875 81.28515625 C169.03881425 86.12045591 166.02596856 90.09862259 162.81640625 94.15234375 C163.56535156 94.405 164.31429688 94.65765625 165.0859375 94.91796875 C168.01206631 96.24079665 169.4227661 97.48915653 171.50390625 99.90234375 C172.08527344 100.5571875 172.66664063 101.21203125 173.265625 101.88671875 C177.20270392 107.63862246 177.07262727 113.32497791 176.94140625 120.02734375 C176.93238281 120.90648437 176.92335938 121.785625 176.9140625 122.69140625 C176.89065202 124.84517085 176.85478635 126.99879389 176.81640625 129.15234375 C177.85458496 129.13139648 178.89276367 129.11044922 179.96240234 129.08886719 C183.8574413 129.01582417 187.75242122 128.97031341 191.64794922 128.93261719 C193.32578756 128.91264676 195.00355761 128.88546043 196.68115234 128.85058594 C207.64026685 128.62866224 216.32082903 128.76914937 225.69921875 135.09765625 C249.90216336 158.58612279 255.43658327 201.64495419 256.17611694 233.73608398 C256.22813696 237.99442898 256.23283913 242.25096022 256.20751953 246.50952148 C256.19138854 249.71836691 256.20752202 252.92595685 256.2265625 256.13476562 C256.24565455 274.61578281 254.64598469 293.04209106 250.50390625 311.08984375 C250.2922583 312.02892578 250.08061035 312.96800781 249.86254883 313.93554688 C245.40854869 332.97643798 238.23647544 354.99155288 221.44140625 366.71484375 C217.5761249 368.83154544 214.76742088 369.27580145 210.42700195 369.26586914 C209.32608719 369.26579361 208.22517242 369.26571808 207.09089661 369.26564026 C205.9033226 369.26047897 204.7157486 369.25531769 203.4921875 369.25 C201.66738106 369.24787758 201.66738106 369.24787758 199.80570984 369.24571228 C195.91341715 369.24010687 192.02118161 369.22755342 188.12890625 369.21484375 C185.49283937 369.20982945 182.85677159 369.20526642 180.22070312 369.20117188 C173.75258461 369.19013568 167.28449951 369.17339225 160.81640625 369.15234375 C160.826399 370.4423378 160.826399 370.4423378 160.83659363 371.75839233 C160.8966328 379.85161862 160.94234391 387.94477042 160.97184277 396.03816795 C160.98751814 400.19936984 161.00879017 404.36038816 161.04272461 408.52148438 C161.07525189 412.53501827 161.09324516 416.54837529 161.10103798 420.56203079 C161.10659348 422.09550386 161.11744169 423.62896693 161.13359642 425.16236496 C161.15528339 427.30556121 161.15837697 429.44802079 161.15698242 431.59130859 C161.16697517 433.42331314 161.16697517 433.42331314 161.1771698 435.29232788 C161.05811783 436.23613312 160.93906586 437.17993835 160.81640625 438.15234375 C155.87365948 441.44750826 150.31463193 440.64512717 144.50390625 440.71484375 C143.27994141 440.76447266 142.05597656 440.81410156 140.79492188 440.86523438 C132.04307358 440.96517392 132.04307358 440.96517392 128.8190918 438.82885742 C127.23978295 437.02695971 126.03771833 435.21173803 124.81640625 433.15234375 C123.9053113 431.89084027 122.98722099 430.63436199 122.0625 429.3828125 C121.1230086 428.03745017 120.18694423 426.68968968 119.25390625 425.33984375 C118.20142515 423.83270142 117.14800792 422.32621247 116.09375 420.8203125 C115.28526611 419.66474854 115.28526611 419.66474854 114.46044922 418.48583984 C111.78088833 414.68256646 109.04858815 410.91790339 106.31640625 407.15234375 C101.53380317 400.55372531 96.80336153 393.9210073 92.125 387.24804688 C91.23409633 385.97953317 90.33236106 384.71854275 89.41884613 383.46621418 C87.81640625 381.15234375 87.81640625 381.15234375 86.21695709 378.38695812 C82.6927837 372.58519316 82.6927837 372.58519316 77.07702637 369.13796425 C73.78748194 368.75892018 70.6521676 368.72479911 67.34179688 368.81176758 C66.11167877 368.80040771 64.88156067 368.78904785 63.61416626 368.77734375 C60.26088389 368.7570198 56.91470495 368.78502191 53.5621891 368.83508134 C50.05207575 368.87589118 46.54234375 368.85418297 43.03210449 368.83927917 C36.39481501 368.82050929 29.75906832 368.85746565 23.12204695 368.91475171 C15.56208726 368.97726786 8.00252622 368.97719591 0.44235706 368.97202647 C-15.10022339 368.96279278 -30.64144618 369.03163738 -46.18359375 369.15234375 C-46.17054199 370.44922119 -46.15749023 371.74609863 -46.14404297 373.08227539 C-46.13348583 374.80484843 -46.12324886 376.52742345 -46.11328125 378.25 C-46.09914185 379.52840759 -46.09914185 379.52840759 -46.0847168 380.8326416 C-46.01585051 396.72162342 -52.28592027 410.63032439 -63.18359375 422.15234375 C-75.36477257 433.89576145 -90.25819678 439.98788887 -107.18359375 440.52734375 C-124.5236701 439.93099192 -140.44124692 433.37607373 -152.62890625 421 C-161.47492716 411.13952715 -168.36836538 397.79194659 -168.28125 384.2890625 C-168.27641602 382.9597168 -168.27641602 382.9597168 -168.27148438 381.60351562 C-168.25891602 380.23549805 -168.25891602 380.23549805 -168.24609375 378.83984375 C-168.24158203 377.90849609 -168.23707031 376.97714844 -168.23242188 376.01757812 C-168.22068609 373.72910002 -168.20426738 371.44075567 -168.18359375 369.15234375 C-168.76717651 369.1612262 -169.35075928 369.17010864 -169.95202637 369.17926025 C-176.05190184 369.268079 -182.15159219 369.32822068 -188.25195312 369.37207031 C-190.52546659 369.39212692 -192.79892885 369.41937913 -195.07226562 369.45410156 C-198.34908724 369.50288087 -201.625224 369.52537272 -204.90234375 369.54296875 C-206.41532043 369.57393646 -206.41532043 369.57393646 -207.9588623 369.60552979 C-216.08524775 369.60808622 -222.31016419 367.57211131 -228.18359375 361.77734375 C-250.87742357 337.79054523 -256.25071106 295.43788027 -256.38671875 263.8984375 C-256.39241882 262.83988052 -256.3981189 261.78132355 -256.4039917 260.69068909 C-256.41339108 258.45436585 -256.4199554 256.21802909 -256.42382812 253.98168945 C-256.43341785 250.65093881 -256.46444201 247.32083766 -256.49609375 243.99023438 C-256.59346891 224.43032716 -255.10452247 204.90102759 -250.49609375 185.83984375 C-250.24335693 184.77499756 -249.99062012 183.71015137 -249.73022461 182.61303711 C-246.14818197 168.21273044 -241.07646217 154.16435258 -232.18359375 142.15234375 C-231.78914063 141.56582031 -231.3946875 140.97929687 -230.98828125 140.375 C-226.91548133 134.77846024 -219.94760052 130.53539336 -213.18359375 129.15234375 C-211.77960323 129.06948085 -210.37224727 129.03447754 -208.96582031 129.03881836 C-208.14527161 129.03889389 -207.3247229 129.03896942 -206.47930908 129.03904724 C-205.60312927 129.04420853 -204.72694946 129.04936981 -203.82421875 129.0546875 C-202.46765167 129.05680992 -202.46765167 129.05680992 -201.0836792 129.05897522 C-198.20028348 129.06456464 -195.31696593 129.07711522 -192.43359375 129.08984375 C-190.47656362 129.09486012 -188.51953228 129.09942279 -186.5625 129.10351562 C-181.76947704 129.11367895 -176.97662271 129.13325647 -172.18359375 129.15234375 C-172.18359375 119.58234375 -172.18359375 110.01234375 -172.18359375 100.15234375 C-177.59860731 100.27059101 -177.59860731 100.27059101 -183.01269531 100.42260742 C-183.69299805 100.4301001 -184.37330078 100.43759277 -185.07421875 100.4453125 C-185.76547852 100.46102295 -186.45673828 100.4767334 -187.16894531 100.49291992 C-189.97318295 100.01886375 -191.16318169 99.1644924 -193.18359375 97.15234375 C-193.69152832 94.15429688 -193.69152832 94.15429688 -193.70117188 90.43359375 C-193.70818115 89.75522461 -193.71519043 89.07685547 -193.72241211 88.37792969 C-193.74001698 86.13565124 -193.72836205 83.89463501 -193.71484375 81.65234375 C-193.71753799 80.09439858 -193.72141984 78.53645504 -193.72644043 76.97851562 C-193.7323388 73.71337881 -193.72376215 70.44867969 -193.70507812 67.18359375 C-193.68228774 62.99667524 -193.6954091 58.81078224 -193.71936798 54.62390137 C-193.73381719 51.40682233 -193.72922415 48.18998673 -193.71885681 44.97290039 C-193.71618706 43.42911661 -193.71946803 41.88531077 -193.72877502 40.34155273 C-193.73892698 38.184137 -193.72346218 36.02838539 -193.70117188 33.87109375 C-193.69639832 32.0293457 -193.69639832 32.0293457 -193.69152832 30.15039062 C-193.18359375 27.15234375 -193.18359375 27.15234375 -191.74938965 25.25569153 C-187.75356878 23.53740206 -183.91810563 23.74404434 -179.61328125 23.7800293 C-178.15900726 23.7745533 -178.15900726 23.7745533 -176.675354 23.76896667 C-173.46958924 23.76085867 -170.26432954 23.77447365 -167.05859375 23.7890625 C-164.83186849 23.78958108 -162.60514277 23.78906347 -160.37841797 23.78755188 C-155.71119352 23.78764161 -151.04414175 23.79807381 -146.37695312 23.81616211 C-140.39123282 23.83884917 -134.40576489 23.83939346 -128.42001343 23.83264446 C-123.82183586 23.82930467 -119.22371595 23.8359348 -114.62554932 23.8457737 C-112.41831768 23.84962579 -110.21107964 23.85077387 -108.00384521 23.84918785 C-104.9204077 23.84881743 -101.83729502 23.86143106 -98.75390625 23.87768555 C-97.83949768 23.87520813 -96.92508911 23.87273071 -95.98297119 23.87017822 C-94.72127106 23.88080544 -94.72127106 23.88080544 -93.43408203 23.89164734 C-92.70553009 23.89370021 -91.97697815 23.89575308 -91.22634888 23.89786816 C-88.80285078 24.19977469 -87.22858123 24.81939446 -85.18359375 26.15234375 C-84.07400205 29.48111886 -84.0499171 31.98087406 -84.03833008 35.48803711 C-84.03195023 36.79626938 -84.02557037 38.10450165 -84.01899719 39.45237732 C-84.01746855 40.88231367 -84.01635457 42.31225052 -84.015625 43.7421875 C-84.01241162 45.20805392 -84.00904748 46.67392002 -84.00553894 48.13978577 C-83.99955139 51.21225732 -83.99769868 54.28470076 -83.99829102 57.35717773 C-83.99839266 61.292613 -83.98473634 65.22786794 -83.96751881 69.16326046 C-83.95639657 72.19072802 -83.95437187 75.218152 -83.95490074 78.24563789 C-83.95372112 79.69649439 -83.94930034 81.14735203 -83.94156837 82.5981884 C-83.93176378 84.62785389 -83.935912 86.65757227 -83.94067383 88.68725586 C-83.93924881 89.84180771 -83.93782379 90.99635956 -83.93635559 92.18589783 C-84.17849675 95.09118818 -84.57421446 96.74740229 -86.18359375 99.15234375 C-89.48931292 100.80520334 -93.17897175 100.25285555 -96.80859375 100.21484375 C-100.95421875 100.18390625 -100.95421875 100.18390625 -105.18359375 100.15234375 C-105.18359375 109.72234375 -105.18359375 119.29234375 -105.18359375 129.15234375 C-84.72359375 129.15234375 -64.26359375 129.15234375 -43.18359375 129.15234375 C-43.18359375 122.55234375 -43.18359375 115.95234375 -43.18359375 109.15234375 C-38.67875504 100.14266633 -38.67875504 100.14266633 -35.12109375 97.27734375 C-34.44949219 96.72304687 -33.77789062 96.16875 -33.0859375 95.59765625 C-31.49556763 94.38936703 -29.84545444 93.26025088 -28.18359375 92.15234375 C-28.83585938 91.54648438 -29.488125 90.940625 -30.16015625 90.31640625 C-41.70389793 79.24939727 -47.95328866 67.62800568 -48.43359375 51.52734375 C-48.26818154 38.12895491 -43.45881085 24.75939537 -34.14453125 14.95703125 C-24.52727071 6.10608629 -13.05420388 0.91075841 0 0 Z M-26.98828125 22.68359375 C-32.97467621 29.41562509 -37.336804 37.00569174 -37.18359375 46.15234375 C-33.47633149 46.38578724 -29.77096255 46.52710721 -26.05859375 46.65234375 C-25.011875 46.719375 -23.96515625 46.78640625 -22.88671875 46.85546875 C-17.13548659 47.14185383 -17.13548659 47.14185383 -12.31347656 44.4765625 C-10.78442604 42.38960705 -10.78442604 42.38960705 -9.49902344 40.13574219 C-8.18359375 38.15234375 -8.18359375 38.15234375 -4.83203125 36.38671875 C-1.9740882 34.45080516 -1.9740882 34.45080516 -1.71191406 31.69726562 C-1.59176493 28.57749576 -1.66117692 25.52077669 -1.80859375 22.40234375 C-1.83566406 21.32339844 -1.86273438 20.24445312 -1.890625 19.1328125 C-1.96130233 16.4706331 -2.05990974 13.81250139 -2.18359375 11.15234375 C-12.02524917 10.94690061 -20.07185133 16.01179639 -26.98828125 22.68359375 Z M7.81640625 11.15234375 C7.81640625 19.07234375 7.81640625 26.99234375 7.81640625 35.15234375 C11.28140625 37.13234375 11.28140625 37.13234375 14.81640625 39.15234375 C16.13640625 41.46234375 17.45640625 43.77234375 18.81640625 46.15234375 C26.73640625 46.15234375 34.65640625 46.15234375 42.81640625 46.15234375 C40.30485881 33.59460655 36.09766501 24.35440099 25.44140625 16.90234375 C19.66287201 13.26400737 14.77557326 11.15234375 7.81640625 11.15234375 Z M44.81640625 22.15234375 C45.23792969 23.18875 45.65945313 24.22515625 46.09375 25.29296875 C46.64727341 26.66270466 47.20065119 28.03249943 47.75390625 29.40234375 C48.03169922 30.08425781 48.30949219 30.76617187 48.59570312 31.46875 C53.41459348 43.4288875 54.00587998 58.39415112 49.140625 70.48046875 C45.29249917 78.24482882 41.15106716 84.49221423 34.3203125 89.91015625 C33.82402344 90.32007812 33.32773437 90.73 32.81640625 91.15234375 C32.81640625 91.48234375 32.81640625 91.81234375 32.81640625 92.15234375 C60.53640625 92.15234375 88.25640625 92.15234375 116.81640625 92.15234375 C114.83640625 88.19234375 112.85640625 84.23234375 110.81640625 80.15234375 C108.12135951 72.06720352 108.95918001 61.97139998 112.53515625 54.30859375 C115.07416874 50.03562151 118.32378139 46.64496861 121.81640625 43.15234375 C114.221269 40.0648747 106.35696096 38.03033388 98.44921875 35.921875 C96.96321358 35.52287293 95.47728337 35.12359157 93.99142456 34.7240448 C90.89403324 33.89206916 87.79593543 33.06279665 84.69726562 32.2355957 C80.72140428 31.17409075 76.74712539 30.10679564 72.77331734 29.03763294 C69.7130153 28.21474003 66.65204422 27.39436026 63.59084702 26.57480431 C62.1242091 26.18192971 60.65774947 25.78838892 59.1914711 25.39417458 C57.15060003 24.84599162 55.10888633 24.30107112 53.06689453 23.75708008 C51.90521759 23.44636063 50.74354065 23.13564117 49.54666138 22.81550598 C46.96076442 22.07366674 46.96076442 22.07366674 44.81640625 22.15234375 Z M-183.18359375 34.15234375 C-183.18359375 38.11234375 -183.18359375 42.07234375 -183.18359375 46.15234375 C-153.81359375 46.15234375 -124.44359375 46.15234375 -94.18359375 46.15234375 C-94.18359375 42.19234375 -94.18359375 38.23234375 -94.18359375 34.15234375 C-123.55359375 34.15234375 -152.92359375 34.15234375 -183.18359375 34.15234375 Z M-3.68359375 46.27734375 C-5.42451355 49.07364328 -5.42451355 49.07364328 -5.18359375 52.27734375 C-4.37114964 55.1617004 -4.37114964 55.1617004 -2.55859375 57.08984375 C0.96217335 58.66492377 3.15874807 58.21638977 6.81640625 57.15234375 C9.0594126 55.08070746 9.0594126 55.08070746 9.81640625 52.15234375 C9.05467934 48.62070079 8.37769213 46.71362963 5.81640625 44.15234375 C1.57293684 43.60226438 -0.36398303 43.45567464 -3.68359375 46.27734375 Z M125.81640625 53.15234375 C121.02479855 57.97049775 118.54037384 62.62618303 118.44140625 69.46484375 C118.58617247 75.80049486 120.08268106 80.30444906 124.5 84.90625 C129.57771536 89.43797446 133.90333802 91.69147253 140.81640625 92.15234375 C148.29413944 90.96540197 154.31123086 88.18492449 159.19140625 82.27734375 C162.61334807 75.6966864 163.40249655 70.32252056 161.81640625 63.15234375 C159.2723845 56.5378872 154.81308077 52.2250909 148.6328125 48.94140625 C140.40363302 45.3665799 132.52767431 47.7833293 125.81640625 53.15234375 Z M-183.18359375 56.15234375 C-183.18359375 60.11234375 -183.18359375 64.07234375 -183.18359375 68.15234375 C-153.81359375 68.15234375 -124.44359375 68.15234375 -94.18359375 68.15234375 C-94.18359375 64.19234375 -94.18359375 60.23234375 -94.18359375 56.15234375 C-123.55359375 56.15234375 -152.92359375 56.15234375 -183.18359375 56.15234375 Z M-37.18359375 56.15234375 C-36.14246457 66.60793887 -32.09175594 75.02580224 -24.18359375 82.15234375 C-17.68973852 86.83173943 -10.33763264 91.15234375 -2.18359375 91.15234375 C-2.18359375 83.23234375 -2.18359375 75.31234375 -2.18359375 67.15234375 C-4.49359375 65.83234375 -6.80359375 64.51234375 -9.18359375 63.15234375 C-10.5456543 61.24584961 -10.5456543 61.24584961 -11.3828125 59.4296875 C-13.03309857 56.89987933 -13.72787632 56.25311815 -16.72509766 55.59033203 C-19.84288642 55.46304405 -22.88072704 55.54166209 -25.99609375 55.71484375 C-27.07052734 55.74642578 -28.14496094 55.77800781 -29.25195312 55.81054688 C-31.89862944 55.89288792 -34.53970469 56.00780818 -37.18359375 56.15234375 Z M18.81640625 56.15234375 C17.49640625 58.46234375 16.17640625 60.77234375 14.81640625 63.15234375 C12.50640625 64.47234375 10.19640625 65.79234375 7.81640625 67.15234375 C7.81640625 75.07234375 7.81640625 82.99234375 7.81640625 91.15234375 C19.71703864 88.77221727 28.25891309 84.846002 35.81640625 75.15234375 C39.74766667 68.72015078 41.73817899 63.69993458 42.81640625 56.15234375 C34.89640625 56.15234375 26.97640625 56.15234375 18.81640625 56.15234375 Z M-183.18359375 78.15234375 C-183.18359375 82.11234375 -183.18359375 86.07234375 -183.18359375 90.15234375 C-153.81359375 90.15234375 -124.44359375 90.15234375 -94.18359375 90.15234375 C-94.18359375 86.19234375 -94.18359375 82.23234375 -94.18359375 78.15234375 C-123.55359375 78.15234375 -152.92359375 78.15234375 -183.18359375 78.15234375 Z M-162.18359375 100.15234375 C-162.18359375 109.72234375 -162.18359375 119.29234375 -162.18359375 129.15234375 C-146.67359375 129.15234375 -131.16359375 129.15234375 -115.18359375 129.15234375 C-115.18359375 119.58234375 -115.18359375 110.01234375 -115.18359375 100.15234375 C-130.69359375 100.15234375 -146.20359375 100.15234375 -162.18359375 100.15234375 Z M-30.68359375 106.65234375 C-35.25902652 114.27806503 -33.18359375 118.11307939 -33.18359375 129.15234375 C32.81640625 129.15234375 98.81640625 129.15234375 166.81640625 129.15234375 C168.22213324 113.26865636 168.22213324 113.26865636 162.81640625 105.15234375 C157.55680058 101.10649323 152.19734847 101.02722892 145.74591064 101.01190186 C144.69547109 101.00744517 144.69547109 101.00744517 143.62381053 101.00289845 C141.28337449 100.99424506 138.94298981 100.99270606 136.60253906 100.99121094 C134.92184338 100.98658038 133.24114874 100.9815554 131.56045532 100.97616577 C126.99830952 100.96306262 122.43617843 100.95660088 117.87401676 100.95215511 C115.02172969 100.94922101 112.16944662 100.94511556 109.31716156 100.94065094 C100.3870811 100.92698148 91.4570098 100.91731213 82.5269196 100.91344905 C72.22944963 100.90896957 61.93211248 100.89142444 51.63468289 100.86244845 C43.66762562 100.84081051 35.70060565 100.83074364 27.73351932 100.82940793 C22.97857728 100.82836142 18.2237602 100.82248629 13.46884918 100.80458832 C8.9938188 100.78807109 4.51900682 100.78596981 0.04395676 100.79472733 C-1.59385642 100.79549575 -3.23168151 100.79118078 -4.86946487 100.78126907 C-18.85561543 100.27651266 -18.85561543 100.27651266 -30.68359375 106.65234375 Z M-204.18359375 139.15234375 C-204.18359375 212.08234375 -204.18359375 285.01234375 -204.18359375 360.15234375 C-184.59512519 360.72128839 -184.59512519 360.72128839 -165.18359375 359.15234375 C-163.65771048 356.66628544 -162.58516364 354.50650135 -161.49609375 351.83984375 C-155.3537401 338.34776828 -145.48196428 327.98211839 -131.3671875 322.65625 C-114.10840067 316.55094365 -97.50288437 316.49640736 -80.6328125 323.66015625 C-64.93933097 331.58988252 -55.98242163 343.28841203 -49.18359375 359.15234375 C34.63640625 359.15234375 118.45640625 359.15234375 204.81640625 359.15234375 C204.81640625 286.55234375 204.81640625 213.95234375 204.81640625 139.15234375 C69.84640625 139.15234375 -65.12359375 139.15234375 -204.18359375 139.15234375 Z M-221.96484375 145.73046875 C-247.7301934 173.85461801 -248.30371475 227.43640529 -246.93359375 262.83984375 C-245.33553021 294.4459894 -241.06550299 330.02614402 -220.18359375 355.15234375 C-217.53212292 357.57347693 -217.53212292 357.57347693 -214.18359375 358.15234375 C-214.18359375 286.54234375 -214.18359375 214.93234375 -214.18359375 141.15234375 C-217.60530536 141.15234375 -219.51436593 143.51083304 -221.96484375 145.73046875 Z M214.81640625 141.15234375 C214.81640625 212.76234375 214.81640625 284.37234375 214.81640625 358.15234375 C234.27610639 344.25255794 239.55188445 317.66378502 243.30078125 295.25732422 C250.10770056 251.3717658 251.82855602 189.83074221 225.81640625 151.15234375 C221.23775198 144.93847949 221.23775198 144.93847949 214.81640625 141.15234375 Z M-102.18359375 327.15234375 C-102.33202912 332.34834282 -102.44084712 337.54310603 -102.51318359 342.74072266 C-102.54333858 344.50819394 -102.58427053 346.27551578 -102.63623047 348.04248047 C-102.70910984 350.58468457 -102.74306003 353.12490995 -102.76953125 355.66796875 C-102.80049896 356.45665344 -102.83146667 357.24533813 -102.8633728 358.05792236 C-102.93028777 360.58523046 -102.93028777 360.58523046 -102.18359375 364.15234375 C-99.3821507 366.44445198 -99.3821507 366.44445198 -96.18359375 368.15234375 C-95.73781982 369.04977295 -95.2920459 369.94720215 -94.83276367 370.87182617 C-94.2885376 371.62439697 -93.74431152 372.37696777 -93.18359375 373.15234375 C-90.19386668 373.60645726 -87.77863592 373.73755639 -84.796875 373.640625 C-83.57136177 373.63001289 -83.57136177 373.63001289 -82.3210907 373.6191864 C-79.71182638 373.59119887 -77.10470915 373.52845681 -74.49609375 373.46484375 C-72.72724454 373.43976631 -70.95836168 373.41695217 -69.18945312 373.39648438 C-64.85333951 373.34135846 -60.5188306 373.2550595 -56.18359375 373.15234375 C-58.60870275 357.84331062 -64.85945402 346.66415095 -77.05859375 336.83984375 C-84.8550067 331.37926087 -92.9199308 328.82093973 -102.18359375 327.15234375 Z M-144.18359375 342.15234375 C-150.9385279 349.87052663 -156.53808176 358.99912739 -157.74047852 369.34106445 C-157.88670654 370.59878662 -158.03293457 371.85650879 -158.18359375 373.15234375 C-153.16668233 373.32598552 -148.15153542 373.45268257 -143.13232422 373.53686523 C-141.42693603 373.57196951 -139.72175707 373.61966761 -138.01708984 373.68041992 C-128.5314805 374.41374049 -128.5314805 374.41374049 -119.83691406 371.63330078 C-118.25361719 369.82845351 -118.25361719 369.82845351 -117.24072266 367.86352539 C-116.18359375 366.15234375 -116.18359375 366.15234375 -112.18359375 364.15234375 C-112.18359375 351.94234375 -112.18359375 339.73234375 -112.18359375 327.15234375 C-123.69754987 327.15234375 -136.11630583 334.44910312 -144.18359375 342.15234375 Z M92.81640625 369.15234375 C96.03622766 374.84654966 96.03622766 374.84654966 99.62890625 380.17578125 C100.14066406 380.87767578 100.65242188 381.57957031 101.1796875 382.30273438 C101.71980469 383.03685547 102.25992187 383.77097656 102.81640625 384.52734375 C103.98387065 386.12832484 105.15051893 387.72990132 106.31640625 389.33203125 C106.90292969 390.13737305 107.48945313 390.94271484 108.09375 391.77246094 C110.7017374 395.3754458 113.2605167 399.01230576 115.81640625 402.65234375 C120.17334898 408.84729169 124.57226853 415.01059224 129.00390625 421.15234375 C129.85178711 422.32893555 129.85178711 422.32893555 130.71679688 423.52929688 C131.23822266 424.25052734 131.75964844 424.97175781 132.296875 425.71484375 C132.75989014 426.35550781 133.22290527 426.99617188 133.69995117 427.65625 C134.73737443 429.12124633 134.73737443 429.12124633 135.81640625 430.15234375 C140.76640625 430.15234375 145.71640625 430.15234375 150.81640625 430.15234375 C150.81640625 410.02234375 150.81640625 389.89234375 150.81640625 369.15234375 C131.67640625 369.15234375 112.53640625 369.15234375 92.81640625 369.15234375 Z M-111.62109375 374.77734375 C-113.43539724 377.04426133 -113.43539724 377.04426133 -113.12109375 379.77734375 C-112.31703829 382.47524136 -112.31703829 382.47524136 -109.18359375 384.15234375 C-105.86119051 383.82820685 -104.57583072 383.54458072 -102.18359375 381.15234375 C-102.50685928 377.55555309 -102.50685928 377.55555309 -103.18359375 374.15234375 C-107.61057495 372.89998099 -107.61057495 372.89998099 -111.62109375 374.77734375 Z M-158.18359375 383.15234375 C-157.28004696 394.33548484 -153.62423356 403.65895154 -146.18359375 412.15234375 C-145.65636719 412.8071875 -145.12914062 413.46203125 -144.5859375 414.13671875 C-140.45241914 418.82440111 -135.80142313 421.75301475 -130.30859375 424.58984375 C-129.33720459 425.10321289 -129.33720459 425.10321289 -128.34619141 425.62695312 C-123.05010104 428.20861644 -118.03618433 428.86459764 -112.18359375 429.15234375 C-112.03513817 424.09876361 -111.92633189 419.04645492 -111.85400391 413.99121094 C-111.82385214 412.27223604 -111.78292245 410.55341473 -111.73095703 408.83496094 C-111.65806194 406.36224511 -111.62412474 403.89156381 -111.59765625 401.41796875 C-111.56668854 400.65115784 -111.53572083 399.88434692 -111.5038147 399.09429932 C-111.4371602 396.63249482 -111.4371602 396.63249482 -112.18359375 393.15234375 C-114.9537011 390.92699175 -114.9537011 390.92699175 -118.18359375 389.15234375 C-118.79686523 388.09192871 -119.41013672 387.03151367 -120.04199219 385.93896484 C-121.9951919 382.75198055 -121.9951919 382.75198055 -125.94238281 382.47119141 C-127.44499639 382.4721366 -128.94782873 382.50577251 -130.44921875 382.56640625 C-131.24261658 382.57489594 -132.0360144 382.58338562 -132.85345459 382.59213257 C-135.38156355 382.62565683 -137.90645338 382.70092395 -140.43359375 382.77734375 C-142.14969343 382.80744508 -143.86584324 382.83482061 -145.58203125 382.859375 C-149.78378784 382.92544361 -153.98314556 383.02895005 -158.18359375 383.15234375 Z M-96.08203125 387.05859375 C-96.42669434 387.77337891 -96.77135742 388.48816406 -97.12646484 389.22460938 C-98.18359375 391.15234375 -98.18359375 391.15234375 -102.18359375 393.15234375 C-102.18359375 405.03234375 -102.18359375 416.91234375 -102.18359375 429.15234375 C-86.74407186 427.60839156 -76.3757908 421.48502314 -66.19140625 409.8828125 C-60.4988373 402.51667714 -56.18359375 392.52966644 -56.18359375 383.15234375 C-61.20045019 382.95389819 -66.21500356 382.80911182 -71.23486328 382.71289062 C-72.94034632 382.67276923 -74.64555603 382.61825422 -76.35009766 382.54882812 C-87.43881409 381.51640878 -87.43881409 381.51640878 -96.08203125 387.05859375 Z " fill="#E56414" transform="translate(256.18359375,35.84765625)"/>
<path d="M0 0 C13.92129057 11.16735106 23.3486452 25.99122778 25.74707031 43.79492188 C26.67245664 52.50196598 26.67245664 52.50196598 24.34082031 56.77929688 C8.20779139 56.84931036 -7.92518842 56.90224734 -24.05833244 56.93473339 C-31.54886827 56.95021669 -39.03930983 56.97133396 -46.52978516 57.00561523 C-53.05682948 57.03547304 -59.58380554 57.05486123 -66.11091626 57.06156236 C-69.56850514 57.06548082 -73.02589872 57.07471962 -76.48342514 57.09648705 C-80.33876008 57.12056311 -84.19390218 57.1212692 -88.04931641 57.11987305 C-89.20161743 57.13065887 -90.35391846 57.1414447 -91.5411377 57.15255737 C-92.58724213 57.14843338 -93.63334656 57.14430939 -94.71115112 57.14006042 C-95.62372618 57.1428258 -96.53630123 57.14559118 -97.47653008 57.14844036 C-98.55694163 56.96571434 -98.55694163 56.96571434 -99.65917969 56.77929688 C-103.26486797 51.37076445 -101.74235179 45.40795449 -100.65917969 39.27929688 C-97.65534065 26.19715675 -91.37346086 15.06221565 -81.65917969 5.77929688 C-81.046875 5.14765625 -80.43457031 4.51601562 -79.80371094 3.86523438 C-59.07307698 -16.20237291 -22.7551219 -16.74155525 0 0 Z M-78.65917969 16.77929688 C-85.79487184 25.72742948 -90.81161068 35.17247896 -90.65917969 46.77929688 C-59.51521536 51.0482712 -59.51521536 51.0482712 -31.25683594 41.72851562 C-26.18494649 37.1907261 -22.0178047 31.80030694 -18.30175781 26.11767578 C-16.65917969 23.77929688 -16.65917969 23.77929688 -13.65917969 21.77929688 C-10.47167969 21.65429688 -10.47167969 21.65429688 -7.65917969 21.77929688 C-7.15449644 24.57732016 -6.97830226 26.06705167 -7.65917969 28.77929688 C-10.1284279 32.11853144 -13.11277961 34.84521572 -16.15917969 37.65429688 C-17.75444178 39.17093715 -19.34827679 40.68908043 -20.94042969 42.20898438 C-22.00874023 43.20260986 -22.00874023 43.20260986 -23.09863281 44.21630859 C-24.77693867 45.52912782 -24.77693867 45.52912782 -24.65917969 46.77929688 C-11.45917969 46.77929688 1.74082031 46.77929688 15.34082031 46.77929688 C13.70251645 32.03456211 7.9838843 20.05994236 -3.53417969 10.40429688 C-8.29657723 6.84342165 -13.1764477 4.06955201 -18.65917969 1.77929688 C-19.39136719 1.45960938 -20.12355469 1.13992187 -20.87792969 0.81054688 C-41.31881901 -6.74978205 -64.28799558 1.39824577 -78.65917969 16.77929688 Z " fill="#E15810" transform="translate(186.6591796875,211.220703125)"/>
<path d="M0 0 C1.12735565 -0.00563965 2.2547113 -0.0112793 3.41622925 -0.01708984 C5.28022873 -0.01101715 5.28022873 -0.01101715 7.18188477 -0.00482178 C8.48594269 -0.00832642 9.79000061 -0.01183105 11.13357544 -0.01544189 C14.71615927 -0.02457915 18.29862824 -0.02101619 21.88121414 -0.01468372 C25.62523973 -0.00963062 29.36925529 -0.01431325 33.11328125 -0.01745605 C39.40146659 -0.02109772 45.68960499 -0.01629137 51.9777832 -0.0067749 C59.25438034 0.00411005 66.53086541 0.00058461 73.80745983 -0.01042771 C80.04782923 -0.0194949 86.28816484 -0.02078866 92.5285387 -0.01555037 C96.25878042 -0.01242753 99.98896941 -0.0120299 103.71920776 -0.01862335 C107.87610545 -0.02545732 112.03280902 -0.01599336 116.18969727 -0.00482178 C117.43236359 -0.00887024 118.67502991 -0.0129187 119.95535278 -0.01708984 C121.08270844 -0.0114502 122.21006409 -0.00581055 123.37158203 0 C124.35530289 0.00075405 125.33902374 0.0015081 126.35255432 0.002285 C128.68579102 0.25396729 128.68579102 0.25396729 130.68579102 2.25396729 C130.93579102 5.25396729 130.93579102 5.25396729 130.68579102 8.25396729 C128.07886888 10.86088942 127.00304436 10.50515095 123.37158203 10.50793457 C122.24422638 10.51357422 121.11687073 10.51921387 119.95535278 10.52502441 C118.0913533 10.51895172 118.0913533 10.51895172 116.18969727 10.51275635 C114.88563934 10.51626099 113.58158142 10.51976562 112.23800659 10.52337646 C108.65542276 10.53251372 105.07295379 10.52895076 101.49036789 10.52261829 C97.7463423 10.51756519 94.00232674 10.52224782 90.25830078 10.52539062 C83.97011545 10.52903229 77.68197704 10.52422594 71.39379883 10.51470947 C64.11720169 10.50382452 56.84071662 10.50734996 49.5641222 10.51836228 C43.3237528 10.52742947 37.08341719 10.52872323 30.84304333 10.52348495 C27.11280161 10.5203621 23.38261262 10.51996447 19.65237427 10.52655792 C15.49547658 10.53339189 11.33877301 10.52392793 7.18188477 10.51275635 C5.93921844 10.51680481 4.69655212 10.52085327 3.41622925 10.52502441 C2.2888736 10.51938477 1.16151794 10.51374512 0 10.50793457 C-0.98372086 10.50718052 -1.96744171 10.50642647 -2.98097229 10.50564957 C-5.31420898 10.25396729 -5.31420898 10.25396729 -7.31420898 8.25396729 C-7.56420898 5.25396729 -7.56420898 5.25396729 -7.31420898 2.25396729 C-4.70728684 -0.35295485 -3.63146233 0.00278362 0 0 Z " fill="#EB7419" transform="translate(299.314208984375,256.74603271484375)"/>
<path d="M0 0 C1.11749634 -0.00563965 2.23499268 -0.0112793 3.38635254 -0.01708984 C5.23396935 -0.01101715 5.23396935 -0.01101715 7.11891174 -0.00482178 C8.4116098 -0.00832642 9.70430786 -0.01183105 11.03617859 -0.01544189 C14.58783914 -0.02457955 18.13938383 -0.02101579 21.69104648 -0.01468372 C25.40390768 -0.00962975 29.11675878 -0.01431359 32.82962036 -0.01745605 C39.06653123 -0.02109792 45.30339478 -0.01629133 51.54029846 -0.0067749 C58.75439195 0.00410533 65.96837237 0.00058813 73.18246311 -0.01042771 C79.37104398 -0.01950002 85.55959078 -0.020786 91.74817616 -0.01555037 C95.44659183 -0.01242974 99.14495435 -0.01202377 102.84336662 -0.01862335 C106.96653324 -0.02546645 111.0895046 -0.01598495 115.21266174 -0.00482178 C116.44238205 -0.00887024 117.67210236 -0.0129187 118.93908691 -0.01708984 C120.61956116 -0.00863037 120.61956116 -0.00863037 122.33398438 0 C123.30940909 0.00075405 124.28483381 0.0015081 125.28981686 0.002285 C127.73048401 0.25396729 127.73048401 0.25396729 130.73048401 2.25396729 C131.04298401 5.25396729 131.04298401 5.25396729 130.73048401 8.25396729 C128.12356187 10.86088942 127.04773735 10.50515095 123.41627502 10.50793457 C122.28891937 10.51357422 121.16156372 10.51921387 120.00004578 10.52502441 C118.1360463 10.51895172 118.1360463 10.51895172 116.23439026 10.51275635 C114.93033234 10.51626099 113.62627441 10.51976562 112.28269958 10.52337646 C108.70011575 10.53251372 105.11764679 10.52895076 101.53506088 10.52261829 C97.79103529 10.51756519 94.04701974 10.52224782 90.30299377 10.52539062 C84.01480844 10.52903229 77.72667004 10.52422594 71.43849182 10.51470947 C64.16189468 10.50382452 56.88540961 10.50734996 49.60881519 10.51836228 C43.36844579 10.52742947 37.12811018 10.52872323 30.88773632 10.52348495 C27.15749461 10.5203621 23.42730562 10.51996447 19.69706726 10.52655792 C15.54016958 10.53339189 11.383466 10.52392793 7.22657776 10.51275635 C5.98391144 10.51680481 4.74124512 10.52085327 3.46092224 10.52502441 C2.33356659 10.51938477 1.20621094 10.51374512 0.04469299 10.50793457 C-0.93902786 10.50718052 -1.92274872 10.50642647 -2.9362793 10.50564957 C-5.26951599 10.25396729 -5.26951599 10.25396729 -7.26951599 8.25396729 C-7.51951599 5.25396729 -7.51951599 5.25396729 -7.26951599 2.25396729 C-4.67045437 -0.34509434 -3.61867996 0.0027985 0 0 Z " fill="#ED781A" transform="translate(299.26951599121094,349.74603271484375)"/>
<path d="M0 0 C1.13439514 -0.00426498 2.26879028 -0.00852997 3.43756104 -0.01292419 C5.32097954 -0.01224442 5.32097954 -0.01224442 7.2424469 -0.0115509 C8.55611237 -0.01490952 9.86977783 -0.01826813 11.22325134 -0.02172852 C14.83685216 -0.03058919 18.45042932 -0.03290749 22.06403995 -0.0335443 C25.07612201 -0.03449171 28.08819851 -0.03816806 31.10027844 -0.0417164 C38.20414864 -0.04986883 45.30800615 -0.05229992 52.41188049 -0.05158997 C59.75036525 -0.05098897 67.08877654 -0.06154329 74.4272427 -0.07733363 C80.71854069 -0.0903905 87.00981462 -0.09577464 93.30112606 -0.09513456 C97.06268934 -0.09487902 100.82418739 -0.09776068 104.58573723 -0.10831261 C108.77865023 -0.11975273 112.97139769 -0.11525817 117.1643219 -0.10920715 C118.41791 -0.11482666 119.67149811 -0.12044617 120.96307373 -0.12623596 C122.66889618 -0.11994423 122.66889618 -0.11994423 124.40917969 -0.11352539 C125.40157371 -0.11407016 126.39396772 -0.11461493 127.41643429 -0.1151762 C129.76808167 0.13371277 129.76808167 0.13371277 131.76808167 2.13371277 C131.39308167 5.75871277 131.39308167 5.75871277 130.76808167 9.13371277 C127.72708476 10.1473784 125.68068121 10.26181694 122.49893188 10.26742554 C121.4067485 10.27169052 120.31456512 10.27595551 119.18928528 10.28034973 C117.99075928 10.27989655 116.79223328 10.27944336 115.55738831 10.27897644 C114.29541122 10.28233505 113.03343414 10.28569366 111.73321533 10.28915405 C108.27042008 10.29799261 104.80764954 10.30033209 101.3448441 10.30096984 C98.45463119 10.30191921 95.56442404 10.30559778 92.67421335 10.30914193 C85.85597183 10.31728577 79.03774351 10.31972622 72.21949768 10.3190155 C65.18434155 10.31841455 58.14926205 10.32896991 51.11412531 10.34475917 C45.0749828 10.35783045 39.03586536 10.36319958 32.99670881 10.36256009 C29.3893705 10.36230501 25.78210031 10.36516216 22.17477608 10.37573814 C18.15252049 10.38720866 14.13043694 10.38267485 10.10816956 10.37663269 C8.91166779 10.3822522 7.71516602 10.3878717 6.48240662 10.3936615 C5.38740341 10.38946701 4.29240021 10.38527252 3.16421509 10.38095093 C2.21313401 10.3814957 1.26205294 10.38204046 0.28215122 10.38260174 C-2.34076902 10.12293672 -3.98015719 9.46703238 -6.23191833 8.13371277 C-6.27433557 5.80076501 -6.27284771 3.4666871 -6.23191833 1.13371277 C-4.52708239 -0.57112317 -2.33138336 0.00393848 0 0 Z " fill="#EC761A" transform="translate(298.23191833496094,303.8662872314453)"/>
<path d="M0 0 C1.0950032 -0.00419449 2.19000641 -0.00838898 3.31819153 -0.01271057 C4.5146933 -0.00709106 5.71119507 -0.00147156 6.94395447 0.00431824 C8.20768387 0.00241989 9.47141327 0.00052155 10.7734375 -0.00143433 C14.23614976 -0.00627803 17.69873298 0.00136676 21.16142964 0.01151872 C24.78485418 0.02030609 28.40827475 0.01854165 32.03170776 0.01815796 C38.11543435 0.01909423 44.19911102 0.02777369 50.28282166 0.04142761 C57.31856735 0.05715978 64.35425842 0.06242544 71.39002043 0.06169206 C78.15713069 0.06108192 84.92422314 0.06618564 91.69132805 0.07448387 C94.57204261 0.07801612 97.45275087 0.07984703 100.33346748 0.08037758 C104.35339568 0.08156771 108.37325909 0.09127593 112.39317322 0.10197449 C114.19096222 0.10129471 114.19096222 0.10129471 116.02507019 0.1006012 C117.11725357 0.10486618 118.20943695 0.10913116 119.3347168 0.11352539 C120.28542085 0.11520123 121.2361249 0.11687708 122.21563816 0.11860371 C124.60386658 0.24723816 124.60386658 0.24723816 127.60386658 1.24723816 C128.22886658 4.62223816 128.22886658 4.62223816 128.60386658 8.24723816 C126.60386658 10.24723816 126.60386658 10.24723816 124.2522192 10.49612713 C123.25982518 10.49558236 122.26743116 10.49503759 121.2449646 10.49447632 C120.10774963 10.49867081 118.97053467 10.5028653 117.79885864 10.50718689 C116.54527054 10.50156738 115.29168243 10.49594788 114.00010681 10.49015808 C112.68468903 10.49205643 111.36927124 10.49395477 110.01399231 10.49591064 C106.40047648 10.50076672 102.78708374 10.49309422 99.17358279 10.4829576 C95.39839738 10.47419101 91.62321598 10.47593426 87.84802246 10.47631836 C81.5085595 10.47538118 75.16914434 10.46668943 68.82969666 10.45304871 C61.49062155 10.43731585 54.1515988 10.4320508 46.81250805 10.43278426 C39.76347717 10.43339369 32.71446343 10.42829645 25.6654377 10.41999245 C22.66026234 10.41645348 19.65509304 10.41462833 16.6499157 10.41409874 C12.45932902 10.41291169 8.26880494 10.40321575 4.07823181 10.39250183 C2.19481331 10.39318161 2.19481331 10.39318161 0.27334595 10.39387512 C-0.86104919 10.38961014 -1.99544434 10.38534515 -3.16421509 10.38095093 C-4.15623208 10.37927508 -5.14824907 10.37759924 -6.17032719 10.37587261 C-8.39613342 10.24723816 -8.39613342 10.24723816 -9.39613342 9.24723816 C-9.4370628 6.91426383 -9.43855065 4.58018591 -9.39613342 2.24723816 C-6.15079287 0.32559731 -3.74942197 -0.00214762 0 0 Z " fill="#EB7219" transform="translate(301.39613342285156,209.7527618408203)"/>
<path d="M0 0 C0.625 3.375 0.625 3.375 1 7 C-1 9 -1 9 -4.5 9.25 C-8 9 -8 9 -10 7 C-10.375 4.5625 -10.375 4.5625 -10 2 C-6.86993817 -1.6116098 -4.40477201 -1.101193 0 0 Z " fill="#EB7118" transform="translate(401,101)"/>
</svg>
