<?xml version="1.0" encoding="UTF-8"?>
<svg version="1.1" xmlns="http://www.w3.org/2000/svg" width="512" height="512">
<path d="M0 0 C16.59412344 13.11027432 27.23806585 30.55815158 30.5390625 51.5390625 C30.76265225 54.05897939 30.81799441 56.35389695 30.7421875 58.8671875 C30.6143681 66.22759302 30.78513093 71.50304962 35.83056641 77.20898438 C37.95508307 79.36994325 40.13619063 81.44941416 42.38769531 83.47753906 C44.17820031 85.11752025 45.75847364 86.88359205 47.328125 88.734375 C47.85921875 89.34667969 48.3903125 89.95898438 48.9375 90.58984375 C50.47213003 92.38130236 52.00258818 94.17611165 53.53125 95.97265625 C59.36046188 102.81506556 65.28345031 109.53805161 71.3828125 116.140625 C75.54317027 120.65986347 79.55498035 125.29866109 83.53515625 129.9765625 C89.36021701 136.81525609 95.28003406 143.53371831 101.375 150.1328125 C103.40338788 152.3356159 105.41167883 154.54975388 107.390625 156.796875 C108.20853516 157.71726563 108.20853516 157.71726563 109.04296875 158.65625 C110.43309272 160.32318203 111.74357587 162.05663984 113.01953125 163.8125 C118.07026667 170.63156124 122.17177113 173.94186344 130.65234375 175.96484375 C140.67176571 178.58985836 148.0212038 185.63605595 153.36328125 194.28125 C157.66578108 202.35941295 158.97088539 209.8215874 158.92578125 218.90234375 C158.92499573 220.0011235 158.92499573 220.0011235 158.92419434 221.12210083 C158.91839791 224.18654762 158.90922032 227.24866378 158.83178711 230.31225586 C158.2902266 239.25719224 158.2902266 239.25719224 161.74682617 247.0546875 C164.04823412 248.57053119 166.30398468 249.70264872 168.828125 250.796875 C176.42543842 256.8109034 181.82424453 265.2491478 183.828125 274.796875 C183.92285918 276.19654275 183.9711664 277.59984227 183.98202515 279.00267029 C183.99062561 279.8339444 183.99922607 280.66521851 184.00808716 281.52168274 C184.01447708 282.87691292 184.01447708 282.87691292 184.02099609 284.25952148 C184.02917358 285.21767761 184.03735107 286.17583374 184.04577637 287.1630249 C184.07057492 290.3313332 184.08712886 293.49959698 184.1015625 296.66796875 C184.10954802 298.29144069 184.10954802 298.29144069 184.11769485 299.94771004 C184.14439748 305.67224545 184.16378493 311.39675922 184.17822266 317.12133789 C184.19158378 321.86176759 184.21948088 326.60176908 184.26025391 331.34204102 C184.30948254 337.06549771 184.33433112 342.7885648 184.34144974 348.5122242 C184.3481736 350.69355587 184.36342495 352.87487847 184.38734055 355.0560894 C184.41888473 358.10613515 184.41904522 361.15466861 184.41162109 364.20483398 C184.42802643 365.10629654 184.44443176 366.00775909 184.46133423 366.9365387 C184.41709528 371.37237717 184.26146223 373.22713601 181.49691772 376.86187744 C177.91827961 379.45655478 176.18277153 379.44377748 171.828125 378.796875 C168.87789303 377.75893636 166.14929143 376.40194328 163.375 374.96484375 C162.20194305 374.37622307 162.20194305 374.37622307 161.00518799 373.77571106 C159.36144622 372.94748429 157.72108087 372.11252593 156.08398438 371.27124023 C153.57918647 369.98492011 151.06429461 368.72039422 148.546875 367.45898438 C146.94728245 366.64968983 145.34830198 365.83918411 143.75 365.02734375 C142.99998718 364.64909958 142.24997437 364.27085541 141.47723389 363.88114929 C140.77930725 363.52100235 140.08138062 363.16085541 139.36230469 362.78979492 C138.44466339 362.32013557 138.44466339 362.32013557 137.50848389 361.84098816 C134.35847988 359.88369162 133.01068154 358.34454462 131.828125 354.796875 C131.73923669 352.81844739 131.71051627 350.83710866 131.71459961 348.85668945 C131.71467514 347.63565018 131.71475067 346.4146109 131.71482849 345.15657043 C131.71998978 343.83775375 131.72515106 342.51893707 131.73046875 341.16015625 C131.7323342 339.79680941 131.7337575 338.43346189 131.73475647 337.07011414 C131.73857168 333.48459009 131.74839345 329.89910665 131.75946045 326.31359863 C131.76969599 322.6537329 131.77431349 318.99386041 131.77929688 315.33398438 C131.78948574 308.15491207 131.80905988 300.97595123 131.828125 293.796875 C120.938125 293.796875 110.048125 293.796875 98.828125 293.796875 C98.88613281 298.28667969 98.94414062 302.77648437 99.00390625 307.40234375 C99.03607246 310.9875799 99.0631822 314.57277514 99.08687592 318.15807343 C99.11325496 321.9400692 99.14848968 325.72150265 99.20532227 329.50317383 C99.25974181 333.14717981 99.28956586 336.79064131 99.30251122 340.43502235 C99.31173357 341.82372927 99.32974353 343.21240715 99.35677528 344.60088158 C99.39318571 346.54897244 99.39516839 348.49761391 99.39575195 350.44604492 C99.40685501 351.5541301 99.41795807 352.66221527 99.42939758 353.80387878 C98.62874403 357.78934747 96.90761039 359.23010135 93.828125 361.796875 C91.44485029 363.22905489 89.13546495 364.51777551 86.65625 365.75 C85.63346954 366.26853546 85.63346954 366.26853546 84.59002686 366.79754639 C83.15369408 367.52176399 81.71477267 368.24086813 80.2734375 368.95507812 C78.08965646 370.04114005 75.91990414 371.15214744 73.75 372.265625 C60.37948763 379.01804462 60.37948763 379.01804462 52.828125 378.796875 C50.2942013 377.88729146 49.12772144 377.29398282 47.726614 374.96918392 C46.79522104 372.71732192 46.57262698 371.21662484 46.56069946 368.79676819 C46.54790451 367.61768387 46.54790451 367.61768387 46.53485107 366.41477966 C46.53575745 365.56126419 46.53666382 364.70774872 46.53759766 363.82836914 C46.53088043 362.92207764 46.52416321 362.01578613 46.51724243 361.08203125 C46.49822896 358.08197554 46.49433543 355.0821435 46.4921875 352.08203125 C46.48575796 349.98896697 46.47902948 347.89590359 46.47201538 345.80284119 C46.46003144 341.40882284 46.45633531 337.01488314 46.45751953 332.62084961 C46.45772188 327.01926206 46.43051203 321.41818666 46.39597511 315.81672001 C46.37360802 311.48839557 46.36968512 307.16019201 46.37073898 302.83181572 C46.36839422 300.76876512 46.35963482 298.70571061 46.34407425 296.64271736 C46.22822749 279.68500787 47.35323113 265.51489987 59.84765625 252.73046875 C63.59689864 249.29665019 67.21662631 246.98815452 71.828125 244.796875 C73.79437307 232.3723466 73.79437307 232.3723466 70.53173828 220.68847656 C66.94070264 216.83575878 62.57635923 214.05621773 58.13330078 211.27685547 C54.35325528 208.84997178 50.86639517 206.05870169 47.328125 203.296875 C45.90180666 202.21253467 44.47472327 201.12919994 43.046875 200.046875 C38.22652533 196.36072526 33.53832305 192.52062725 28.84765625 188.671875 C24.08279507 184.77760732 19.23266982 181.0132514 14.328125 177.296875 C8.06716157 172.55268413 1.94138488 167.67280407 -4.13037109 162.68945312 C-9.79297801 158.06061914 -15.57888645 153.60594568 -21.4140625 149.19726562 C-22.07921875 148.69388672 -22.744375 148.19050781 -23.4296875 147.671875 C-24.0086377 147.23617187 -24.58758789 146.80046875 -25.18408203 146.3515625 C-27.171875 144.796875 -27.171875 144.796875 -29.79309082 142.26126099 C-34.05522267 138.74905108 -38.29935522 138.66683072 -43.58797264 138.92970085 C-55.24882351 140.43064626 -63.11723147 150.1537913 -70.96865511 158.11253214 C-72.89847231 160.05904948 -74.85392983 161.97878932 -76.80940092 163.89947879 C-81.4302854 168.43943923 -86.00589284 173.02168278 -90.5546875 177.63378906 C-95.21644113 182.35893311 -99.94648022 187.00641839 -104.71698248 191.62153161 C-108.84045652 195.6157332 -112.91690543 199.65404438 -116.96000803 203.72957695 C-119.36246828 206.15052254 -121.77772699 208.55258782 -124.23961258 210.91321182 C-136.93576108 222.86684784 -136.93576108 222.86684784 -141.36911583 239.08239555 C-141.22796772 242.85741813 -140.83286272 246.56287413 -140.35595322 250.30849838 C-139.31007684 264.44669662 -148.37008647 280.44673773 -156.984375 291.109375 C-160.72561321 295.43331934 -160.72561321 295.43331934 -162.77073383 297.09941578 C-164.72086073 299.46196208 -164.55594098 301.05215924 -164.57060242 304.09294128 C-164.58314056 305.1909053 -164.59567871 306.28886932 -164.6085968 307.42010498 C-164.60716171 308.62491516 -164.60572662 309.82972534 -164.60424805 311.07104492 C-164.6144397 312.33944717 -164.62463135 313.60784943 -164.63513184 314.91468811 C-164.66274896 318.39376102 -164.67199264 321.87267049 -164.67798591 325.35183883 C-164.68735741 328.98741768 -164.71355974 332.62287385 -164.73799133 336.25837708 C-164.78169386 343.14311693 -164.81021769 350.02783303 -164.83331472 356.91266948 C-164.86034634 364.75062889 -164.90425905 372.58846512 -164.94960344 380.42633665 C-165.04250343 396.54978703 -165.11415955 412.67325947 -165.171875 428.796875 C-163.84912551 428.79272693 -163.84912551 428.79272693 -162.49965382 428.78849506 C-141.05075364 428.72226545 -119.60187108 428.67260913 -98.15289021 428.64143848 C-87.78035627 428.62596425 -77.40789055 428.60486408 -67.03540039 428.57055664 C-57.99559506 428.54067134 -48.95583912 428.52130404 -39.91598576 428.51460952 C-35.12866964 428.51069579 -30.34149487 428.50148639 -25.55422401 428.47968483 C-21.04891721 428.45933344 -16.54381009 428.45303848 -12.03846169 428.45755196 C-10.3844545 428.45672615 -8.73044069 428.45075245 -7.07647324 428.43925858 C-4.81838082 428.42433526 -2.56104256 428.42792039 -0.30293274 428.43611145 C0.96084544 428.43334607 2.22462362 428.43058069 3.52669811 428.42773151 C7.09893351 428.827155 8.96870593 429.66412709 11.828125 431.796875 C14.00510301 434.89392247 14.08510002 437.58605209 14.1027832 441.31225586 C14.11231522 442.41697739 14.12184723 443.52169891 14.13166809 444.65989685 C14.13030098 446.44279869 14.13030098 446.44279869 14.12890625 448.26171875 C14.13319138 449.48717911 14.1374765 450.71263947 14.14189148 451.97523499 C14.14763431 454.56673566 14.1481354 457.15825245 14.14379883 459.74975586 C14.14063995 463.71561166 14.16409627 467.68072087 14.18945312 471.64648438 C14.1917262 474.16406156 14.19242958 476.68164075 14.19140625 479.19921875 C14.200616 480.38579575 14.20982574 481.57237274 14.21931458 482.79490662 C14.20997139 484.45671715 14.20997139 484.45671715 14.20043945 486.15209961 C14.20106888 487.12376572 14.2016983 488.09543182 14.2023468 489.09654236 C13.75815012 492.30180401 12.71700145 494.19103488 10.828125 496.796875 C8.21969974 498.10108763 6.31521995 497.92591361 3.39261818 497.93109608 C2.23113215 497.93555392 1.06964612 497.94001176 -0.12703645 497.94460469 C-1.41416807 497.94442033 -2.70129969 497.94423597 -4.0274353 497.94404602 C-5.39987023 497.94734378 -6.77230418 497.95106916 -8.14473689 497.9551875 C-11.92922128 497.96522538 -15.71368981 497.96892715 -19.49818563 497.97157681 C-23.57461823 497.9754745 -27.65103821 497.98505311 -31.72746277 497.99378967 C-41.57767509 498.01356787 -51.42788847 498.0236214 -61.27811569 498.03251746 C-65.9129057 498.03689761 -70.54769457 498.04226507 -75.18248367 498.04750633 C-90.58242493 498.06451896 -105.98236547 498.07901463 -121.38231468 498.08625507 C-125.38020198 498.08816507 -129.37808928 498.09008539 -133.37597656 498.09204102 C-134.86651827 498.09276663 -134.86651827 498.09276663 -136.38717194 498.0935069 C-152.4957287 498.10181281 -168.60421133 498.12715902 -184.7127357 498.15962169 C-201.23812118 498.19265393 -217.76346894 498.2107003 -234.28888762 498.21389931 C-243.57258615 498.21606783 -252.85617655 498.22486639 -262.13984299 498.25036049 C-270.04374348 498.27201507 -277.94750957 498.28014382 -285.85143636 498.27039371 C-289.8863818 498.26583388 -293.92104965 498.26783221 -297.95595741 498.28715515 C-301.6472231 498.30468031 -305.33800652 498.30387685 -309.02927656 498.28825786 C-311.00261481 498.28472901 -312.97595749 498.30098716 -314.94922674 498.31786233 C-316.11592826 498.30928144 -317.28262978 498.30070055 -318.4846859 498.29185963 C-319.9981438 498.29332484 -319.9981438 498.29332484 -321.5421766 498.29481965 C-324.90129834 497.65875557 -326.08827397 496.45661248 -328.171875 493.796875 C-328.67980957 491.06494141 -328.67980957 491.06494141 -328.68945312 487.8984375 C-328.70206177 486.71040527 -328.71467041 485.52237305 -328.72766113 484.29833984 C-328.71551575 482.37948975 -328.71551575 482.37948975 -328.703125 480.421875 C-328.7069519 479.10525879 -328.71077881 477.78864258 -328.71472168 476.43212891 C-328.72061224 473.64792066 -328.71206914 470.86422651 -328.69335938 468.08007812 C-328.67056876 464.51538167 -328.6836944 460.95188982 -328.70764923 457.38723755 C-328.7255983 453.9820207 -328.71302277 450.57712606 -328.703125 447.171875 C-328.71122192 445.8926416 -328.71931885 444.6134082 -328.72766113 443.29541016 C-328.71505249 442.10737793 -328.70244385 440.9193457 -328.68945312 439.6953125 C-328.68627075 438.65036621 -328.68308838 437.60541992 -328.67980957 436.52880859 C-328.0445255 433.11192382 -326.83651693 431.95370703 -324.171875 429.796875 C-321.64443412 428.53315456 -319.90807192 428.67664705 -317.07958984 428.68334961 C-315.48816666 428.68346291 -315.48816666 428.68346291 -313.86459351 428.68357849 C-312.14111191 428.69132042 -312.14111191 428.69132042 -310.3828125 428.69921875 C-308.62247177 428.70134117 -308.62247177 428.70134117 -306.8265686 428.70350647 C-303.06664515 428.70911811 -299.30678055 428.72167262 -295.546875 428.734375 C-293.00260502 428.7393885 -290.45833412 428.74395167 -287.9140625 428.74804688 C-281.66664647 428.75909132 -275.41926494 428.77584082 -269.171875 428.796875 C-269.13893301 411.96766832 -269.14596327 395.13901427 -269.20034122 378.30987453 C-269.22466311 370.49544292 -269.23599472 362.68139875 -269.21655273 354.86694336 C-269.1996365 348.05435068 -269.20729005 341.2423 -269.24422258 334.42977864 C-269.26292004 330.82369737 -269.26946587 327.21853234 -269.24656868 323.61245537 C-269.22144174 319.58260766 -269.251181 315.55492744 -269.28540039 311.52514648 C-269.2695842 310.33471741 -269.25376801 309.14428833 -269.23747253 307.91778564 C-269.32901132 302.3175899 -269.49316153 298.77653995 -273.57249451 294.7091217 C-274.77197448 293.73798543 -275.97174714 292.7672105 -277.171875 291.796875 C-283.36685807 284.18034368 -288.04911145 275.05495045 -291.171875 265.796875 C-291.49027344 264.86359375 -291.80867188 263.9303125 -292.13671875 262.96875 C-298.00042771 242.324171 -294.31004493 221.04181156 -284.31640625 202.46875 C-281.47137319 197.44248189 -278.05980092 193.05848705 -274.171875 188.796875 C-273.65496094 188.1884375 -273.13804687 187.58 -272.60546875 186.953125 C-262.02015071 175.28009257 -246.38499315 168.59375492 -231.27734375 165.47265625 C-230.25253906 165.24964844 -229.22773438 165.02664062 -228.171875 164.796875 C-226.63904877 164.54933723 -226.63904877 164.54933723 -225.07525635 164.29679871 C-219.44647981 162.64362046 -215.68476764 158.13168351 -211.61230469 154.12231445 C-210.67975861 153.22262436 -209.74721252 152.32293427 -208.78640747 151.39598083 C-205.70439606 148.41871719 -202.64863223 145.41520695 -199.59375 142.41015625 C-198.53435167 141.37101973 -197.47479315 140.3320465 -196.41507721 139.29323387 C-191.43072525 134.40408089 -186.45849571 129.50298972 -181.5006969 124.58691341 C-175.81017848 118.94509055 -170.08089945 113.34695587 -164.31426311 107.78298408 C-159.83933016 103.45991271 -155.40448651 99.09814599 -150.99661183 94.70673341 C-148.37249181 92.09426068 -145.73517273 89.50025363 -143.05391693 86.94634438 C-132.0082618 76.39930174 -123.12020497 67.53135022 -122.3669548 51.47614765 C-122.33260007 49.7197819 -122.3094987 47.96314646 -122.29964447 46.2064724 C-121.99030903 40.37273241 -119.57137819 35.056531 -117.171875 29.796875 C-116.75292969 28.86230469 -116.33398438 27.92773438 -115.90234375 26.96484375 C-106.54566762 8.11666907 -90.09999537 -3.91375037 -70.828125 -11.5234375 C-46.85428411 -19.24474211 -20.42075355 -14.18387316 0 0 Z M-83.171875 15.796875 C-84.203125 16.51875 -85.234375 17.240625 -86.296875 17.984375 C-98.2674538 28.56706061 -104.39056319 43.233835 -106.171875 58.796875 C-106.74381048 75.01292793 -101.62338583 89.84073913 -91.109375 102.2265625 C-80.48916651 113.49156937 -66.23277429 121.02443538 -50.6953125 122.01953125 C-34.60706965 122.39634346 -19.9489199 118.0991998 -7.671875 107.296875 C-6.15217314 105.8168391 -4.64977911 104.3186501 -3.171875 102.796875 C-2.61113281 102.25675781 -2.05039062 101.71664062 -1.47265625 101.16015625 C8.0721235 91.21454586 12.68341629 76.46614536 13.265625 62.984375 C12.75142073 46.74409012 6.44499374 31.74407553 -4.79296875 20.01171875 C-18.3927531 7.34985056 -33.67749139 3.04098654 -51.82421875 3.421875 C-63.67982831 4.01055574 -73.67807679 8.86721374 -83.171875 15.796875 Z M-121.51307774 89.01502991 C-122.08735476 89.59022873 -122.66163179 90.16542755 -123.25331116 90.75805664 C-123.91098984 91.41436066 -124.56866852 92.07066467 -125.24627686 92.74685669 C-125.97203918 93.47621429 -126.69780151 94.2055719 -127.44555664 94.95703125 C-128.58694344 96.09819901 -128.58694344 96.09819901 -129.75138855 97.26242065 C-132.2806452 99.79237723 -134.80633562 102.32586379 -137.33203125 104.859375 C-139.07916388 106.60837152 -140.82651656 108.35714825 -142.57408142 110.10571289 C-146.7124767 114.24754382 -150.84863728 118.39159593 -154.98373646 122.53671741 C-160.15160807 127.71684344 -165.32291414 132.89353576 -170.49414062 138.0703125 C-179.72282281 147.30973596 -188.94842608 156.55222747 -198.171875 165.796875 C-197.29556569 168.11178623 -197.29556569 168.11178623 -194.36328125 168.875 C-193.16574219 169.26171875 -191.96820313 169.6484375 -190.734375 170.046875 C-170.89576221 176.81993088 -156.36265263 191.16302387 -147.171875 209.796875 C-142.30148901 205.73492223 -137.70841496 201.48205614 -133.22680664 196.99707031 C-132.57229523 196.34591751 -131.91778381 195.69476471 -131.24343872 195.02388 C-129.10367634 192.89353663 -126.9676289 190.75951781 -124.83203125 188.625 C-123.33995244 187.13613688 -121.8477994 185.64734814 -120.35557556 184.15863037 C-117.2413769 181.05039793 -114.12923031 177.94012728 -111.01831055 174.82861328 C-107.02281391 170.83301443 -103.02044773 166.84437279 -99.01633549 162.85741043 C-95.93928388 159.79144006 -92.86675016 156.7209734 -89.7954998 153.64919281 C-88.32064378 152.17551998 -86.84415878 150.70347562 -85.366045 149.23307037 C-83.3096737 147.18643325 -81.25965979 145.1336346 -79.21118164 143.07910156 C-78.59567947 142.4692189 -77.98017731 141.85933624 -77.34602356 141.23097229 C-74.2209083 138.52101054 -74.2209083 138.52101054 -73.171875 134.796875 C-74.21085937 134.3121875 -75.24984375 133.8275 -76.3203125 133.328125 C-96.7678113 123.59063608 -111.36900896 109.36950464 -119.171875 87.796875 C-120.35047196 87.6848193 -120.35047196 87.6848193 -121.51307774 89.01502991 Z M24.828125 92.796875 C23.9069794 94.36496472 22.99097667 95.9362781 22.09960938 97.52148438 C13.68509255 112.38665294 2.5455984 123.0947177 -12.171875 131.796875 C-8.27466411 135.85117117 -4.11696771 139.40330637 0.265625 142.921875 C0.96864746 143.4895459 1.67166992 144.0572168 2.39599609 144.64208984 C8.59175151 149.63354095 14.83980191 154.55713495 21.11035156 159.45410156 C24.02084128 161.72921433 26.92406996 164.0135587 29.828125 166.296875 C30.99475779 167.21358478 32.16142444 168.13025148 33.328125 169.046875 C40.328125 174.546875 40.328125 174.546875 42.0793457 175.92285156 C43.24192075 176.83629179 44.40451828 177.74970342 45.56713867 178.66308594 C49.15721085 181.48360528 52.74643933 184.30519368 56.33496094 187.12768555 C58.09331489 188.50969089 59.85323161 189.88968651 61.61328125 191.26953125 C63.62935653 192.85098917 65.63549416 194.44254575 67.63671875 196.04296875 C68.44238281 196.68363281 69.24804688 197.32429688 70.078125 197.984375 C70.76390625 198.53480469 71.4496875 199.08523437 72.15625 199.65234375 C73.76549528 200.98517208 73.76549528 200.98517208 75.828125 200.796875 C76.1684375 200.095625 76.50875 199.394375 76.859375 198.671875 C82.15748409 188.30110827 88.31819012 181.85721402 98.828125 176.796875 C96.50971278 172.52279534 93.54057001 169.16042584 90.203125 165.671875 C86.44284192 161.67660953 82.81685582 157.65010932 79.390625 153.359375 C74.80500205 147.64613985 69.83066958 142.34485563 64.82421875 137.00390625 C60.44695786 132.3329418 56.2766961 127.49939959 52.12890625 122.625 C46.29209343 115.77499023 40.36607695 109.04358758 34.25 102.44140625 C32.18073724 100.18190482 30.17569571 97.89047686 28.203125 95.546875 C27.419375 94.639375 26.635625 93.731875 25.828125 92.796875 C25.498125 92.796875 25.168125 92.796875 24.828125 92.796875 Z M-263.171875 203.796875 C-274.28094741 217.88742641 -277.20584223 233.3897792 -276.171875 250.796875 C-274.04339265 266.45781851 -264.68377091 280.29764112 -252.4765625 289.921875 C-237.92716672 299.76286573 -221.51688682 303.03226548 -204.30078125 300.1484375 C-188.80820782 296.1068966 -175.53077784 286.87678875 -166.703125 273.46875 C-158.87533915 259.81006244 -155.38391782 244.01785716 -159.08203125 228.4921875 C-163.60723218 212.12065017 -173.27172368 198.32367692 -188.171875 189.796875 C-214.69552426 176.8953328 -243.19144784 181.85408446 -263.171875 203.796875 Z M96.828125 198.796875 C92.30937764 204.77894728 90.67372396 209.59640368 90.73046875 217.08984375 C90.73296631 218.38172607 90.73546387 219.6736084 90.73803711 221.00463867 C90.74714111 222.64795166 90.75624512 224.29126465 90.765625 225.984375 C90.78625 231.2025 90.806875 236.420625 90.828125 241.796875 C107.328125 241.796875 123.828125 241.796875 140.828125 241.796875 C140.89 237.1975 140.951875 232.598125 141.015625 227.859375 C141.04293701 226.42730713 141.07024902 224.99523926 141.09838867 223.51977539 C141.166472 213.02396224 140.162163 205.28314504 132.7734375 197.5234375 C122.15806084 188.10175781 106.92965674 188.97175333 96.828125 198.796875 Z M69.08203125 269.66015625 C65.62122786 275.55753773 64.45312559 280.79699226 64.48754883 287.58984375 C64.48711075 288.32252975 64.48667267 289.05521576 64.48622131 289.81010437 C64.48829052 292.20181099 64.51153132 294.59279276 64.53515625 296.984375 C64.54075889 298.65445574 64.54502583 300.32454145 64.54801941 301.99462891 C64.55941568 306.36767442 64.58883724 310.74041598 64.62213135 315.11334229 C64.6529454 319.58463429 64.66654886 324.05597592 64.68164062 328.52734375 C64.71371253 337.28399289 64.76484486 346.04039602 64.828125 354.796875 C68.81698986 353.54523705 72.48531067 352.0810229 76.203125 350.171875 C77.07710938 349.72585938 77.95109375 349.27984375 78.8515625 348.8203125 C79.82996094 348.31371094 79.82996094 348.31371094 80.828125 347.796875 C80.83621185 346.97890442 80.84429871 346.16093384 80.85263062 345.31817627 C80.93058464 337.60802168 81.01787766 329.89805611 81.11565208 322.18812943 C81.16558926 318.22441353 81.21191944 314.26072395 81.25 310.296875 C81.28688552 306.4712451 81.33325418 302.64583674 81.38618851 298.82039642 C81.40471513 297.36121254 81.41982951 295.9019812 81.43146896 294.44272614 C81.44836138 292.39811029 81.47740253 290.3539999 81.50927734 288.30957031 C81.52260101 287.14596985 81.53592468 285.98236938 81.5496521 284.7835083 C81.81994104 281.88464833 82.22362405 280.20050259 83.828125 277.796875 C86.4618792 276.4799979 88.4581934 276.64801871 91.40771484 276.61987305 C92.57587738 276.60703781 93.74403992 276.59420258 94.94760132 276.58097839 C96.21528351 276.57359146 97.4829657 276.56620453 98.7890625 276.55859375 C100.08631256 276.550522 101.38356262 276.54245026 102.72012329 276.53413391 C105.46901316 276.51910854 108.2178772 276.50926943 110.96679688 276.50170898 C114.48657941 276.49064081 118.00573036 276.45623599 121.52528954 276.41653728 C124.88402224 276.38409821 128.2426852 276.3795949 131.6015625 276.37109375 C133.49701309 276.34483162 133.49701309 276.34483162 135.43075562 276.31803894 C137.1924559 276.32242729 137.1924559 276.32242729 138.98974609 276.3269043 C140.5395668 276.31810493 140.5395668 276.31810493 142.12069702 276.30912781 C145.64274612 276.94363021 146.77894561 277.87798293 148.828125 280.796875 C149.34710693 283.7835083 149.34710693 283.7835083 149.37402344 287.30957031 C149.38436111 287.95389008 149.39469879 288.59820984 149.40534973 289.26205444 C149.43475393 291.38329211 149.43627625 293.50357466 149.4375 295.625 C149.45248344 297.09903785 149.46921095 298.57305893 149.48760986 300.04705811 C149.53127804 303.92025528 149.551281 307.79322601 149.56634521 311.66662598 C149.58591845 315.62163684 149.62788813 319.5764032 149.66796875 323.53125 C149.7432652 331.2864235 149.79148896 339.04140485 149.828125 346.796875 C155.108125 349.436875 160.388125 352.076875 165.828125 354.796875 C165.91866935 344.89550212 165.99198097 334.99440641 166.03537369 325.0927124 C166.05620514 320.49443113 166.08444109 315.89644899 166.12988281 311.29833984 C166.17349976 306.85683268 166.19729549 302.41561236 166.20763397 297.97390747 C166.214997 296.28349292 166.22937521 294.5930932 166.25104523 292.90280151 C166.37225888 283.05183192 166.3471502 275.74850492 160.15234375 267.58984375 C159.61222656 267.06003906 159.07210937 266.53023438 158.515625 265.984375 C157.98324219 265.44167969 157.45085937 264.89898437 156.90234375 264.33984375 C149.63532363 258.93405665 142.23760802 259.32271142 133.49609375 259.328125 C132.09515585 259.321011 130.69422082 259.31331022 129.29328918 259.30505371 C126.36398209 259.29164992 123.4349443 259.29002086 120.50561523 259.29589844 C116.77670533 259.30178304 113.04910262 259.27123769 109.32044506 259.23078156 C106.42821966 259.20475525 103.53630254 259.20204062 100.64397621 259.20567322 C99.27062007 259.20399506 97.89724764 259.1944799 96.5240078 259.17652893 C85.31811711 259.04617616 76.54262555 260.81879525 69.08203125 269.66015625 Z M-251.171875 311.796875 C-251.171875 350.406875 -251.171875 389.016875 -251.171875 428.796875 C-228.731875 428.796875 -206.291875 428.796875 -183.171875 428.796875 C-183.171875 390.186875 -183.171875 351.576875 -183.171875 311.796875 C-189.70232207 313.7485593 -189.70232207 313.7485593 -196.21875 315.74609375 C-212.15455992 320.09850426 -228.59314938 318.68641775 -244.171875 313.796875 C-246.481875 313.136875 -248.791875 312.476875 -251.171875 311.796875 Z M-310.171875 446.796875 C-310.171875 457.686875 -310.171875 468.576875 -310.171875 479.796875 C-209.191875 479.796875 -108.211875 479.796875 -4.171875 479.796875 C-4.171875 468.906875 -4.171875 458.016875 -4.171875 446.796875 C-105.151875 446.796875 -206.131875 446.796875 -310.171875 446.796875 Z " fill="#E46322" transform="translate(328.171875,14.203125)"/>
<path d="M0 0 C10.30249255 7.37441572 16.8682259 16.8479036 19.9375 29.125 C21.07438681 42.76764168 18.87529944 54.19148637 10.1875 65.125 C2.18367614 74.02890785 -7.68035842 79.36812414 -19.6875 80.36328125 C-33.61802178 80.69413114 -44.57106567 76.73744032 -54.80859375 67.28125 C-62.40134959 59.3129385 -66.27157129 49.04912136 -66.8125 38.125 C-66.40153053 25.66334511 -63.12991119 15.3454652 -54.5 6.1875 C-50.30292367 2.29975593 -46.02245811 -0.53602233 -40.8125 -2.875 C-40.1628125 -3.19339844 -39.513125 -3.51179688 -38.84375 -3.83984375 C-26.70561307 -8.90518166 -10.86900257 -6.90208347 0 0 Z M-44.18359375 22.80859375 C-48.62280771 29.12143278 -48.64838818 35.63683504 -47.8125 43.125 C-45.7207924 49.96040163 -41.95422355 55.39565684 -35.8125 59.125 C-28.44316984 62.61713303 -21.54696704 63.26171957 -13.8125 60.6875 C-7.2501301 57.80571969 -2.74482222 53.09699567 0.3828125 46.66796875 C2.80287196 39.74572661 2.9167726 33.28510063 0.08984375 26.484375 C-3.75858618 19.32350816 -9.07196032 14.70517989 -16.8125 12.125 C-29.02073934 11.00682793 -36.19923444 13.53383293 -44.18359375 22.80859375 Z " fill="#E56624" transform="translate(304.8125,39.875)"/>
<path d="M0 0 C9.74331129 6.67962501 17.10772232 16.10713078 19.63671875 27.85546875 C21.35362673 40.60665118 19.62898274 52.26204588 12.39453125 63.046875 C4.94880353 72.47080344 -4.21546954 78.09607006 -16.04296875 80.234375 C-29.26890401 81.56111459 -40.20936722 79.12101087 -50.859375 71.078125 C-59.72708333 63.59054302 -65.34034408 53.1021373 -66.37890625 41.47265625 C-66.52073163 27.21920589 -63.3424925 16.14070356 -53.38671875 5.45703125 C-38.94222343 -7.93138068 -16.87130855 -9.78925733 0 0 Z M-43.04296875 21.234375 C-47.81499202 27.91520758 -48.69674618 34.207441 -48.04296875 42.234375 C-46.6181174 48.98430638 -42.84989402 54.51514266 -37.23828125 58.5234375 C-31.02160234 62.23210003 -25.17249074 62.99750565 -18.04296875 62.234375 C-10.63831946 59.98027829 -5.153751 56.4501802 -1.29296875 49.671875 C2.1474171 43.21570789 3.37633578 36.90410753 1.203125 29.75390625 C-2.2325265 21.7104398 -6.71712205 16.65521441 -14.79296875 12.984375 C-25.82600432 10.43828987 -35.3396669 12.82721816 -43.04296875 21.234375 Z " fill="#DC4E13" transform="translate(134.04296875,218.765625)"/>
<path d="M0 0 C2.61132668 1.65445756 3.57680411 2.35818684 5 5 C5.76109492 9.40128274 5.70018038 13.76140783 5.6640625 18.21875 C5.66884613 19.50938354 5.67362976 20.80001709 5.67855835 22.12976074 C5.6859143 24.8568323 5.67526785 27.5830828 5.65185547 30.31005859 C5.62336557 33.79752706 5.63977683 37.28307172 5.66971779 40.77046967 C5.692179 44.10754877 5.67643132 47.44411631 5.6640625 50.78125 C5.67418365 52.03031128 5.68430481 53.27937256 5.69473267 54.56628418 C5.56449417 64.19078393 5.56449417 64.19078393 2.67724609 67.29101562 C-0.87077569 69.55584806 -2.86230901 69.66498605 -7 69 C-10.38939556 66.86320715 -11.72582557 65.8225233 -13 62 C-13.10280185 60.23215222 -13.14847645 58.46073045 -13.16113281 56.68994141 C-13.17074036 55.6051651 -13.1803479 54.52038879 -13.19024658 53.40274048 C-13.19449646 52.23085175 -13.19874634 51.05896301 -13.203125 49.8515625 C-13.20882507 48.64688324 -13.21452515 47.44220398 -13.22039795 46.20101929 C-13.22985005 43.65062336 -13.23638276 41.10021522 -13.24023438 38.54980469 C-13.24994384 34.64757002 -13.28096779 30.7458611 -13.3125 26.84375 C-13.31902965 24.36719063 -13.32428027 21.89062749 -13.328125 19.4140625 C-13.3404718 18.24622223 -13.3528186 17.07838196 -13.36553955 15.87515259 C-13.36253845 14.78407196 -13.35953735 13.69299133 -13.35644531 12.56884766 C-13.36009094 11.61193024 -13.36373657 10.65501282 -13.36749268 9.6690979 C-12.92482192 6.45398188 -11.90747758 4.60819576 -10 2 C-6.24952518 -0.50031654 -4.44143734 -0.53603554 0 0 Z " fill="#DC4D12" transform="translate(106,358)"/>
<path d="M0 0 C1.9375 1.125 1.9375 1.125 3 3 C3.90345883 6.48476979 4.51747101 8.85873178 3.00073242 12.20385742 C0.07626854 16.29096967 -3.37279035 19.77984423 -6.88671875 23.36328125 C-7.66255814 24.15526413 -8.43839752 24.94724701 -9.23774719 25.76322937 C-10.87805901 27.43114128 -12.52145854 29.09602144 -14.16772461 30.75805664 C-15.84765913 32.4611043 -17.5186032 34.17306744 -19.18041992 35.89379883 C-21.58404044 38.38260855 -24.0129413 40.84397978 -26.44921875 43.30078125 C-27.18597336 44.07255203 -27.92272797 44.84432281 -28.68180847 45.63948059 C-34.55373857 51.46305122 -34.55373857 51.46305122 -39.34692383 51.57104492 C-43.6088629 50.90482321 -45.33251991 50.41770886 -48 47 C-48.88612024 43.77832 -48.73272497 41.24427674 -48 38 C-42.99926449 30.22905673 -34.82456196 23.63845082 -28.30151367 17.11621094 C-26.3016301 15.11411809 -24.30991231 13.10412576 -22.31835938 11.09375 C-21.04215584 9.81461593 -19.76547992 8.53595294 -18.48828125 7.2578125 C-17.89654617 6.65889191 -17.3048111 6.05997131 -16.69514465 5.44290161 C-15.85858589 4.61095779 -15.85858589 4.61095779 -15.00512695 3.76220703 C-14.27734795 3.0322905 -14.27734795 3.0322905 -13.53486633 2.28762817 C-9.09363144 -1.43820714 -5.41132103 -1.37010043 0 0 Z " fill="#E05A1C" transform="translate(210,137)"/>
</svg>
